# MagicaVoxel @ Ephtracy

# group
o 

# material
mtllib Boss.mtl
usemtl palette

# normals
vn -1 0 0
vn 1 0 0
vn 0 0 1
vn 0 0 -1
vn 0 -1 0
vn 0 1 0

# texcoords
vt 0.0488281 0.5
vt 0.158203 0.5
vt 0.208984 0.5
vt 0.287109 0.5
vt 0.755859 0.5

# verts
v 0 2 0
v 0 2 -0.4
v 0 3.5 0
v 0 3.5 -0.4
v 0 3.6 0
v 0 3.6 -0.4
v 0.3 3.6 -0.1
v 0.3 3.6 -0.3
v 0.3 3.7 -0.1
v 0.3 3.7 -0.3
v 0.3 3.8 -0.1
v 0.3 3.8 -0.3
v 0.3 4.1 -0.1
v 0.3 4.1 -0.3
v 0.4 3.7 -0.1
v 0.4 3.7 -0.3
v 0.4 3.8 -0.1
v 0.4 3.8 -0.3
v 0.4 4.1 -0.1
v 0.4 4.1 -0.3
v 0.4 4.2 -0.1
v 0.4 4.2 -0.3
v 1.5 2.8 0
v 1.5 2.8 -0.1
v 1.5 2.8 -0.3
v 1.5 2.8 -0.4
v 1.5 2.9 0
v 1.5 2.9 -0.1
v 1.5 2.9 -0.3
v 1.5 2.9 -0.4
v 0.2 3.4 0
v 0.2 3.4 -0.1
v 0.2 3.4 -0.3
v 0.2 3.4 -0.4
v 0.2 3.5 0
v 0.2 3.5 -0.1
v 0.2 3.5 -0.3
v 0.2 3.5 -0.4
v 0.2 3.6 0
v 0.2 3.6 -0.1
v 0.2 3.6 -0.3
v 0.2 3.6 -0.4
v 0.3 3.1 0
v 0.3 3.1 -0.1
v 0.3 3.1 -0.3
v 0.3 3.1 -0.4
v 0.3 3.2 0
v 0.3 3.2 -0.1
v 0.3 3.2 -0.3
v 0.3 3.2 -0.4
v 0.3 3.4 0
v 0.3 3.4 -0.1
v 0.3 3.4 -0.3
v 0.3 3.4 -0.4
v 0.4 3 -0.3
v 0.4 3 -0.4
v 0.4 3.1 -0.3
v 0.4 3.1 -0.4
v 0.8 3.6 -0.1
v 0.8 3.6 -0.3
v 0.8 3.7 -0.1
v 0.8 3.7 -0.3
v 1 3.4 -0.1
v 1 3.4 -0.3
v 1 3.5 -0.1
v 1 3.5 -0.3
v 1 4.1 -0.1
v 1 4.1 -0.3
v 1 4.2 -0.1
v 1 4.2 -0.3
v 1.1 3.3 -0.1
v 1.1 3.3 -0.3
v 1.1 3.4 -0.1
v 1.1 3.4 -0.3
v 1.1 3.5 -0.1
v 1.1 3.5 -0.3
v 1.1 3.6 -0.1
v 1.1 3.6 -0.3
v 1.1 3.7 -0.1
v 1.1 3.7 -0.3
v 1.1 3.8 -0.1
v 1.1 3.8 -0.3
v 1.1 4 -0.1
v 1.1 4 -0.3
v 1.1 4.1 -0.1
v 1.1 4.1 -0.3
v 1.2 3.8 -0.1
v 1.2 3.8 -0.3
v 1.2 3.9 -0.1
v 1.2 3.9 -0.3
v 1.2 4 -0.1
v 1.2 4 -0.3
v 1.3 2.9 0
v 1.3 2.9 -0.1
v 1.3 2.9 -0.3
v 1.3 2.9 -0.4
v 1.3 3 0
v 1.3 3 -0.1
v 1.3 3 -0.3
v 1.3 3 -0.4
v 1.3 3.1 0
v 1.3 3.1 -0.1
v 1.3 3.2 -0.1
v 1.3 3.2 -0.3
v 1.3 3.3 -0.1
v 1.3 3.3 -0.3
v 1.4 2.8 0
v 1.4 2.8 -0.1
v 1.4 2.8 -0.3
v 1.4 2.8 -0.4
v 1.4 2.9 0
v 1.4 2.9 -0.1
v 1.4 2.9 -0.3
v 1.4 2.9 -0.4
v 1.4 3.1 -0.1
v 1.4 3.1 -0.3
v 1.4 3.2 -0.1
v 1.4 3.2 -0.3
v 1.5 2 0
v 1.5 2 -0.4
v 1.5 2.1 0
v 1.5 2.1 -0.4
v 1.5 2.7 0
v 1.5 2.7 -0.4
v 1.5 2.8 0
v 1.5 2.8 -0.4
v 1.5 2.9 -0.1
v 1.5 2.9 -0.3
v 1.5 3.1 -0.1
v 1.5 3.1 -0.3
v 1.6 2.1 0
v 1.6 2.1 -0.4
v 1.6 2.7 0
v 1.6 2.7 -0.4
v 1.6 2.8 0
v 1.6 2.8 -0.4
v 1.6 2.9 0
v 1.6 2.9 -0.4
v 0 2 0
v 0 3.5 0
v 0 3.6 0
v 0.1 2.2 0
v 0.1 2.9 0
v 0.2 2.1 0
v 0.2 2.2 0
v 0.2 2.9 0
v 0.2 3 0
v 0.2 3.2 0
v 0.2 3.4 0
v 0.2 3.5 0
v 0.2 3.6 0
v 0.3 3.1 0
v 0.3 3.2 0
v 0.3 3.4 0
v 0.4 3 0
v 0.4 3.1 0
v 1.3 2.2 0
v 1.3 2.3 0
v 1.3 2.7 0
v 1.3 2.9 0
v 1.3 3 0
v 1.3 3.1 0
v 1.4 2.1 0
v 1.4 2.2 0
v 1.4 2.3 0
v 1.4 2.7 0
v 1.4 2.8 0
v 1.4 2.9 0
v 1.5 2 0
v 1.5 2.1 0
v 1.5 2.2 0
v 1.5 2.7 0
v 1.5 2.8 0
v 1.5 2.9 0
v 1.6 2.1 0
v 1.6 2.7 0
v 1.6 2.8 0
v 1.6 2.9 0
v 0.2 3.4 -0.1
v 0.2 3.5 -0.1
v 0.2 3.6 -0.1
v 0.3 3.1 -0.1
v 0.3 3.2 -0.1
v 0.3 3.4 -0.1
v 0.3 3.6 -0.1
v 0.3 3.7 -0.1
v 0.3 3.8 -0.1
v 0.3 4.1 -0.1
v 0.4 3.1 -0.1
v 0.4 3.7 -0.1
v 0.4 3.8 -0.1
v 0.4 4.1 -0.1
v 0.4 4.2 -0.1
v 0.5 3.6 -0.1
v 0.5 3.7 -0.1
v 0.5 3.8 -0.1
v 0.5 3.9 -0.1
v 0.6 3.8 -0.1
v 0.6 3.9 -0.1
v 0.7 3.3 -0.1
v 0.7 3.4 -0.1
v 0.7 3.5 -0.1
v 0.7 3.6 -0.1
v 0.7 3.8 -0.1
v 0.7 4.1 -0.1
v 0.8 3.6 -0.1
v 0.8 3.7 -0.1
v 0.8 3.9 -0.1
v 0.8 4 -0.1
v 1 3.4 -0.1
v 1 3.5 -0.1
v 1 3.8 -0.1
v 1 3.9 -0.1
v 1 4 -0.1
v 1 4.1 -0.1
v 1 4.2 -0.1
v 1.1 3.3 -0.1
v 1.1 3.4 -0.1
v 1.1 3.5 -0.1
v 1.1 3.6 -0.1
v 1.1 3.7 -0.1
v 1.1 3.8 -0.1
v 1.1 4 -0.1
v 1.1 4.1 -0.1
v 1.2 3.8 -0.1
v 1.2 3.9 -0.1
v 1.2 4 -0.1
v 1.3 2.9 -0.1
v 1.3 3 -0.1
v 1.3 3.1 -0.1
v 1.3 3.2 -0.1
v 1.3 3.3 -0.1
v 1.4 2.8 -0.1
v 1.4 2.9 -0.1
v 1.4 3.1 -0.1
v 1.4 3.2 -0.1
v 1.5 2.8 -0.1
v 1.5 2.9 -0.1
v 1.5 3.1 -0.1
v 0.2 3.4 -0.3
v 0.2 3.5 -0.3
v 0.2 3.6 -0.3
v 0.3 3.1 -0.3
v 0.3 3.2 -0.3
v 0.3 3.4 -0.3
v 0.3 3.6 -0.3
v 0.3 3.7 -0.3
v 0.3 3.8 -0.3
v 0.3 4.1 -0.3
v 0.4 3 -0.3
v 0.4 3.1 -0.3
v 0.4 3.7 -0.3
v 0.4 3.8 -0.3
v 0.4 4.1 -0.3
v 0.4 4.2 -0.3
v 0.5 3.6 -0.3
v 0.5 3.7 -0.3
v 0.5 3.8 -0.3
v 0.5 3.9 -0.3
v 0.6 3.8 -0.3
v 0.6 3.9 -0.3
v 0.7 3.3 -0.3
v 0.7 3.4 -0.3
v 0.7 3.5 -0.3
v 0.7 3.6 -0.3
v 0.7 3.8 -0.3
v 0.7 4.1 -0.3
v 0.8 3.6 -0.3
v 0.8 3.7 -0.3
v 0.8 3.9 -0.3
v 0.8 4 -0.3
v 1 3.4 -0.3
v 1 3.5 -0.3
v 1 3.8 -0.3
v 1 3.9 -0.3
v 1 4 -0.3
v 1 4.1 -0.3
v 1 4.2 -0.3
v 1.1 3.3 -0.3
v 1.1 3.4 -0.3
v 1.1 3.5 -0.3
v 1.1 3.6 -0.3
v 1.1 3.7 -0.3
v 1.1 3.8 -0.3
v 1.1 4 -0.3
v 1.1 4.1 -0.3
v 1.2 3.8 -0.3
v 1.2 3.9 -0.3
v 1.2 4 -0.3
v 1.3 2.9 -0.3
v 1.3 3 -0.3
v 1.3 3.1 -0.3
v 1.3 3.2 -0.3
v 1.3 3.3 -0.3
v 1.4 2.8 -0.3
v 1.4 2.9 -0.3
v 1.4 3.1 -0.3
v 1.4 3.2 -0.3
v 1.5 2.8 -0.3
v 1.5 2.9 -0.3
v 1.5 3.1 -0.3
v 0 2 -0.4
v 0 3.5 -0.4
v 0 3.6 -0.4
v 0.1 2.2 -0.4
v 0.1 2.9 -0.4
v 0.2 2.1 -0.4
v 0.2 2.2 -0.4
v 0.2 2.9 -0.4
v 0.2 3 -0.4
v 0.2 3.2 -0.4
v 0.2 3.4 -0.4
v 0.2 3.5 -0.4
v 0.2 3.6 -0.4
v 0.3 3.1 -0.4
v 0.3 3.2 -0.4
v 0.3 3.4 -0.4
v 0.4 3 -0.4
v 0.4 3.1 -0.4
v 1.3 2.2 -0.4
v 1.3 2.3 -0.4
v 1.3 2.7 -0.4
v 1.3 2.9 -0.4
v 1.3 3 -0.4
v 1.4 2.1 -0.4
v 1.4 2.2 -0.4
v 1.4 2.3 -0.4
v 1.4 2.7 -0.4
v 1.4 2.8 -0.4
v 1.4 2.9 -0.4
v 1.5 2 -0.4
v 1.5 2.1 -0.4
v 1.5 2.2 -0.4
v 1.5 2.7 -0.4
v 1.5 2.8 -0.4
v 1.5 2.9 -0.4
v 1.6 2.1 -0.4
v 1.6 2.7 -0.4
v 1.6 2.8 -0.4
v 1.6 2.9 -0.4
v 0 2 0
v 1.5 2 0
v 0 2 -0.4
v 1.5 2 -0.4
v 1.5 2.1 0
v 1.6 2.1 0
v 1.5 2.1 -0.4
v 1.6 2.1 -0.4
v 1.5 2.8 0
v 1.6 2.8 0
v 1.5 2.8 -0.4
v 1.6 2.8 -0.4
v 1 3.5 -0.1
v 1.1 3.5 -0.1
v 1 3.5 -0.3
v 1.1 3.5 -0.3
v 0.8 3.7 -0.1
v 1.1 3.7 -0.1
v 0.8 3.7 -0.3
v 1.1 3.7 -0.3
v 0.3 3.8 -0.1
v 0.4 3.8 -0.1
v 1.1 3.8 -0.1
v 1.2 3.8 -0.1
v 0.3 3.8 -0.3
v 0.4 3.8 -0.3
v 1.1 3.8 -0.3
v 1.2 3.8 -0.3
v 1.5 2.7 0
v 1.6 2.7 0
v 1.5 2.7 -0.4
v 1.6 2.7 -0.4
v 1.4 2.8 0
v 1.5 2.8 0
v 1.4 2.8 -0.1
v 1.5 2.8 -0.1
v 1.4 2.8 -0.3
v 1.5 2.8 -0.3
v 1.4 2.8 -0.4
v 1.5 2.8 -0.4
v 1.3 2.9 0
v 1.4 2.9 0
v 1.5 2.9 0
v 1.6 2.9 0
v 1.3 2.9 -0.1
v 1.4 2.9 -0.1
v 1.5 2.9 -0.1
v 1.3 2.9 -0.3
v 1.4 2.9 -0.3
v 1.5 2.9 -0.3
v 1.3 2.9 -0.4
v 1.4 2.9 -0.4
v 1.5 2.9 -0.4
v 1.6 2.9 -0.4
v 0.4 3 -0.3
v 1.3 3 -0.3
v 0.4 3 -0.4
v 1.3 3 -0.4
v 0.3 3.1 0
v 0.4 3.1 0
v 1.3 3.1 0
v 0.3 3.1 -0.1
v 0.4 3.1 -0.1
v 1.3 3.1 -0.1
v 1.4 3.1 -0.1
v 1.5 3.1 -0.1
v 0.3 3.1 -0.3
v 0.4 3.1 -0.3
v 1.4 3.1 -0.3
v 1.5 3.1 -0.3
v 0.3 3.1 -0.4
v 0.4 3.1 -0.4
v 1.3 3.2 -0.1
v 1.4 3.2 -0.1
v 1.3 3.2 -0.3
v 1.4 3.2 -0.3
v 1.1 3.3 -0.1
v 1.3 3.3 -0.1
v 1.1 3.3 -0.3
v 1.3 3.3 -0.3
v 0.2 3.4 0
v 0.3 3.4 0
v 0.2 3.4 -0.1
v 0.3 3.4 -0.1
v 1 3.4 -0.1
v 1.1 3.4 -0.1
v 0.2 3.4 -0.3
v 0.3 3.4 -0.3
v 1 3.4 -0.3
v 1.1 3.4 -0.3
v 0.2 3.4 -0.4
v 0.3 3.4 -0.4
v 0 3.6 0
v 0.2 3.6 0
v 0.2 3.6 -0.1
v 0.3 3.6 -0.1
v 0.8 3.6 -0.1
v 1.1 3.6 -0.1
v 0.2 3.6 -0.3
v 0.3 3.6 -0.3
v 0.8 3.6 -0.3
v 1.1 3.6 -0.3
v 0 3.6 -0.4
v 0.2 3.6 -0.4
v 0.3 3.7 -0.1
v 0.4 3.7 -0.1
v 0.3 3.7 -0.3
v 0.4 3.7 -0.3
v 1.1 4 -0.1
v 1.2 4 -0.1
v 1.1 4 -0.3
v 1.2 4 -0.3
v 0.3 4.1 -0.1
v 0.4 4.1 -0.1
v 1 4.1 -0.1
v 1.1 4.1 -0.1
v 0.3 4.1 -0.3
v 0.4 4.1 -0.3
v 1 4.1 -0.3
v 1.1 4.1 -0.3
v 0.4 4.2 -0.1
v 1 4.2 -0.1
v 0.4 4.2 -0.3
v 1 4.2 -0.3

# faces
f 3/3/1 2/3/1 1/3/1
f 4/3/1 2/3/1 3/3/1
f 5/4/1 4/4/1 3/4/1
f 6/4/1 4/4/1 5/4/1
f 9/5/1 8/5/1 7/5/1
f 10/5/1 8/5/1 9/5/1
f 13/2/1 12/2/1 11/2/1
f 14/2/1 12/2/1 13/2/1
f 17/1/1 16/1/1 15/1/1
f 18/1/1 16/1/1 17/1/1
f 21/1/1 20/1/1 19/1/1
f 22/1/1 20/1/1 21/1/1
f 27/3/1 24/3/1 23/3/1
f 28/3/1 24/3/1 27/3/1
f 29/3/1 26/3/1 25/3/1
f 30/3/1 26/3/1 29/3/1
f 31/3/2 32/3/2 35/3/2
f 35/3/2 32/3/2 36/3/2
f 33/3/2 34/3/2 37/3/2
f 37/3/2 34/3/2 38/3/2
f 35/4/2 36/4/2 39/4/2
f 39/4/2 36/4/2 40/4/2
f 37/4/2 38/4/2 41/4/2
f 41/4/2 38/4/2 42/4/2
f 43/3/2 44/3/2 47/3/2
f 47/3/2 44/3/2 48/3/2
f 45/3/2 46/3/2 49/3/2
f 49/3/2 46/3/2 50/3/2
f 47/4/2 48/4/2 51/4/2
f 51/4/2 48/4/2 52/4/2
f 49/4/2 50/4/2 53/4/2
f 53/4/2 50/4/2 54/4/2
f 55/3/2 56/3/2 57/3/2
f 57/3/2 56/3/2 58/3/2
f 59/1/2 60/1/2 61/1/2
f 61/1/2 60/1/2 62/1/2
f 63/5/2 64/5/2 65/5/2
f 65/5/2 64/5/2 66/5/2
f 67/1/2 68/1/2 69/1/2
f 69/1/2 68/1/2 70/1/2
f 71/2/2 72/2/2 73/2/2
f 73/2/2 72/2/2 74/2/2
f 75/1/2 76/1/2 77/1/2
f 77/1/2 76/1/2 78/1/2
f 79/1/2 80/1/2 81/1/2
f 81/1/2 80/1/2 82/1/2
f 83/1/2 84/1/2 85/1/2
f 85/1/2 84/1/2 86/1/2
f 87/2/2 88/2/2 89/2/2
f 89/2/2 88/2/2 90/2/2
f 89/1/2 90/1/2 91/1/2
f 91/1/2 90/1/2 92/1/2
f 93/4/2 94/4/2 97/4/2
f 97/4/2 94/4/2 98/4/2
f 95/4/2 96/4/2 99/4/2
f 99/4/2 96/4/2 100/4/2
f 97/2/2 98/2/2 101/2/2
f 101/2/2 98/2/2 102/2/2
f 103/5/2 104/5/2 105/5/2
f 105/5/2 104/5/2 106/5/2
f 107/4/2 108/4/2 111/4/2
f 111/4/2 108/4/2 112/4/2
f 109/4/2 110/4/2 113/4/2
f 113/4/2 110/4/2 114/4/2
f 115/1/2 116/1/2 117/1/2
f 117/1/2 116/1/2 118/1/2
f 119/3/2 120/3/2 121/3/2
f 121/3/2 120/3/2 122/3/2
f 123/3/2 124/3/2 125/3/2
f 125/3/2 124/3/2 126/3/2
f 127/1/2 128/1/2 129/1/2
f 129/1/2 128/1/2 130/1/2
f 131/3/2 132/3/2 133/3/2
f 133/3/2 132/3/2 134/3/2
f 135/3/2 136/3/2 137/3/2
f 137/3/2 136/3/2 138/3/2
f 142/3/3 140/3/3 139/3/3
f 143/3/3 140/3/3 142/3/3
f 144/3/3 142/3/3 139/3/3
f 145/4/3 143/4/3 142/4/3
f 145/3/3 142/3/3 144/3/3
f 146/3/3 140/3/3 143/3/3
f 146/4/3 143/4/3 145/4/3
f 147/3/3 140/3/3 146/3/3
f 148/3/3 140/3/3 147/3/3
f 149/3/3 140/3/3 148/3/3
f 150/4/3 141/4/3 140/4/3
f 150/3/3 140/3/3 149/3/3
f 151/4/3 141/4/3 150/4/3
f 152/3/3 148/3/3 147/3/3
f 153/4/3 149/4/3 148/4/3
f 153/3/3 148/3/3 152/3/3
f 154/4/3 149/4/3 153/4/3
f 155/3/3 152/3/3 147/3/3
f 155/4/3 147/4/3 146/4/3
f 156/3/3 152/3/3 155/3/3
f 157/4/3 145/4/3 144/4/3
f 157/3/3 146/3/3 145/3/3
f 158/3/3 146/3/3 157/3/3
f 159/3/3 146/3/3 158/3/3
f 160/4/3 155/4/3 146/4/3
f 160/3/3 146/3/3 159/3/3
f 161/2/3 156/2/3 155/2/3
f 161/4/3 155/4/3 160/4/3
f 162/2/3 156/2/3 161/2/3
f 163/3/3 144/3/3 139/3/3
f 163/4/3 157/4/3 144/4/3
f 163/4/3 158/4/3 157/4/3
f 164/4/3 158/4/3 163/4/3
f 165/3/3 159/3/3 158/3/3
f 165/4/3 158/4/3 164/4/3
f 166/4/3 160/4/3 159/4/3
f 166/3/3 159/3/3 165/3/3
f 167/4/3 160/4/3 166/4/3
f 168/4/3 160/4/3 167/4/3
f 169/3/3 164/3/3 163/3/3
f 169/3/3 163/3/3 139/3/3
f 170/3/3 164/3/3 169/3/3
f 171/4/3 165/4/3 164/4/3
f 171/3/3 164/3/3 170/3/3
f 171/4/3 166/4/3 165/4/3
f 172/3/3 167/3/3 166/3/3
f 172/4/3 166/4/3 171/4/3
f 173/3/3 167/3/3 172/3/3
f 175/3/3 171/3/3 170/3/3
f 175/3/3 172/3/3 171/3/3
f 176/3/3 172/3/3 175/3/3
f 177/3/3 174/3/3 173/3/3
f 178/3/3 174/3/3 177/3/3
f 184/5/3 180/5/3 179/5/3
f 184/5/3 181/5/3 180/5/3
f 185/5/3 181/5/3 184/5/3
f 189/5/3 183/5/3 182/5/3
f 189/5/3 184/5/3 183/5/3
f 189/5/3 186/5/3 185/5/3
f 189/5/3 185/5/3 184/5/3
f 190/5/3 186/5/3 189/5/3
f 191/2/3 188/2/3 187/2/3
f 192/2/3 188/2/3 191/2/3
f 194/5/3 190/5/3 189/5/3
f 195/1/3 191/1/3 190/1/3
f 195/5/3 190/5/3 194/5/3
f 196/2/3 192/2/3 191/2/3
f 196/1/3 191/1/3 195/1/3
f 197/2/3 192/2/3 196/2/3
f 198/1/3 195/1/3 194/1/3
f 198/1/3 196/1/3 195/1/3
f 198/1/3 197/1/3 196/1/3
f 199/2/3 192/2/3 197/2/3
f 199/1/3 197/1/3 198/1/3
f 200/5/3 194/5/3 189/5/3
f 201/5/3 194/5/3 200/5/3
f 202/5/3 194/5/3 201/5/3
f 203/1/3 198/1/3 194/1/3
f 203/5/3 194/5/3 202/5/3
f 204/2/3 199/2/3 198/2/3
f 204/1/3 198/1/3 203/1/3
f 205/1/3 193/1/3 192/1/3
f 205/2/3 199/2/3 204/2/3
f 205/2/3 192/2/3 199/2/3
f 206/1/3 204/1/3 203/1/3
f 206/1/3 203/1/3 202/1/3
f 206/1/3 205/1/3 204/1/3
f 207/1/3 205/1/3 206/1/3
f 208/1/3 205/1/3 207/1/3
f 209/1/3 205/1/3 208/1/3
f 210/2/3 201/2/3 200/2/3
f 210/5/3 202/5/3 201/5/3
f 211/1/3 206/1/3 202/1/3
f 211/5/3 202/5/3 210/5/3
f 212/1/3 208/1/3 207/1/3
f 213/2/3 209/2/3 208/2/3
f 213/1/3 208/1/3 212/1/3
f 214/1/3 205/1/3 209/1/3
f 214/2/3 209/2/3 213/2/3
f 215/1/3 193/1/3 205/1/3
f 215/1/3 205/1/3 214/1/3
f 216/1/3 193/1/3 215/1/3
f 217/5/3 200/5/3 189/5/3
f 217/2/3 210/2/3 200/2/3
f 218/2/3 210/2/3 217/2/3
f 219/1/3 206/1/3 211/1/3
f 220/1/3 206/1/3 219/1/3
f 221/1/3 212/1/3 207/1/3
f 222/2/3 213/2/3 212/2/3
f 222/1/3 212/1/3 221/1/3
f 223/1/3 214/1/3 213/1/3
f 223/1/3 215/1/3 214/1/3
f 224/1/3 215/1/3 223/1/3
f 225/2/3 213/2/3 222/2/3
f 226/1/3 223/1/3 213/1/3
f 226/2/3 213/2/3 225/2/3
f 227/1/3 223/1/3 226/1/3
f 230/5/3 217/5/3 189/5/3
f 231/5/3 217/5/3 230/5/3
f 232/5/3 217/5/3 231/5/3
f 234/1/3 229/1/3 228/1/3
f 234/1/3 230/1/3 229/1/3
f 234/1/3 231/1/3 230/1/3
f 235/1/3 231/1/3 234/1/3
f 236/1/3 231/1/3 235/1/3
f 237/1/3 234/1/3 233/1/3
f 237/1/3 235/1/3 234/1/3
f 238/1/3 235/1/3 237/1/3
f 239/1/3 235/1/3 238/1/3
f 240/5/4 241/5/4 245/5/4
f 241/5/4 242/5/4 245/5/4
f 245/5/4 242/5/4 246/5/4
f 243/5/4 244/5/4 251/5/4
f 244/5/4 245/5/4 251/5/4
f 246/5/4 247/5/4 251/5/4
f 245/5/4 246/5/4 251/5/4
f 251/5/4 247/5/4 252/5/4
f 248/2/4 249/2/4 253/2/4
f 253/2/4 249/2/4 254/2/4
f 251/5/4 252/5/4 256/5/4
f 252/1/4 253/1/4 257/1/4
f 256/5/4 252/5/4 257/5/4
f 253/2/4 254/2/4 258/2/4
f 257/1/4 253/1/4 258/1/4
f 258/2/4 254/2/4 259/2/4
f 256/1/4 257/1/4 260/1/4
f 257/1/4 258/1/4 260/1/4
f 258/1/4 259/1/4 260/1/4
f 259/2/4 254/2/4 261/2/4
f 260/1/4 259/1/4 261/1/4
f 251/5/4 256/5/4 262/5/4
f 262/5/4 256/5/4 263/5/4
f 263/5/4 256/5/4 264/5/4
f 256/1/4 260/1/4 265/1/4
f 264/5/4 256/5/4 265/5/4
f 260/2/4 261/2/4 266/2/4
f 265/1/4 260/1/4 266/1/4
f 254/1/4 255/1/4 267/1/4
f 266/2/4 261/2/4 267/2/4
f 261/2/4 254/2/4 267/2/4
f 265/1/4 266/1/4 268/1/4
f 264/1/4 265/1/4 268/1/4
f 266/1/4 267/1/4 268/1/4
f 268/1/4 267/1/4 269/1/4
f 269/1/4 267/1/4 270/1/4
f 270/1/4 267/1/4 271/1/4
f 262/2/4 263/2/4 272/2/4
f 263/5/4 264/5/4 272/5/4
f 264/1/4 268/1/4 273/1/4
f 272/5/4 264/5/4 273/5/4
f 269/1/4 270/1/4 274/1/4
f 270/2/4 271/2/4 275/2/4
f 274/1/4 270/1/4 275/1/4
f 271/1/4 267/1/4 276/1/4
f 275/2/4 271/2/4 276/2/4
f 267/1/4 255/1/4 277/1/4
f 276/1/4 267/1/4 277/1/4
f 277/1/4 255/1/4 278/1/4
f 251/5/4 262/5/4 279/5/4
f 262/2/4 272/2/4 279/2/4
f 279/2/4 272/2/4 280/2/4
f 273/1/4 268/1/4 281/1/4
f 281/1/4 268/1/4 282/1/4
f 269/1/4 274/1/4 283/1/4
f 274/2/4 275/2/4 284/2/4
f 283/1/4 274/1/4 284/1/4
f 275/1/4 276/1/4 285/1/4
f 276/1/4 277/1/4 285/1/4
f 285/1/4 277/1/4 286/1/4
f 284/2/4 275/2/4 287/2/4
f 275/1/4 285/1/4 288/1/4
f 287/2/4 275/2/4 288/2/4
f 288/1/4 285/1/4 289/1/4
f 250/2/4 251/2/4 291/2/4
f 251/5/4 279/5/4 292/5/4
f 291/2/4 251/2/4 292/2/4
f 292/5/4 279/5/4 293/5/4
f 293/5/4 279/5/4 294/5/4
f 290/1/4 291/1/4 296/1/4
f 291/1/4 292/1/4 296/1/4
f 292/1/4 293/1/4 296/1/4
f 296/1/4 293/1/4 297/1/4
f 297/1/4 293/1/4 298/1/4
f 295/1/4 296/1/4 299/1/4
f 296/1/4 297/1/4 299/1/4
f 299/1/4 297/1/4 300/1/4
f 300/1/4 297/1/4 301/1/4
f 302/3/4 303/3/4 305/3/4
f 305/3/4 303/3/4 306/3/4
f 302/3/4 305/3/4 307/3/4
f 305/4/4 306/4/4 308/4/4
f 307/3/4 305/3/4 308/3/4
f 306/3/4 303/3/4 309/3/4
f 308/4/4 306/4/4 309/4/4
f 309/3/4 303/3/4 310/3/4
f 310/3/4 303/3/4 311/3/4
f 311/3/4 303/3/4 312/3/4
f 303/4/4 304/4/4 313/4/4
f 312/3/4 303/3/4 313/3/4
f 313/4/4 304/4/4 314/4/4
f 310/3/4 311/3/4 315/3/4
f 311/4/4 312/4/4 316/4/4
f 315/3/4 311/3/4 316/3/4
f 316/4/4 312/4/4 317/4/4
f 310/3/4 315/3/4 318/3/4
f 309/4/4 310/4/4 318/4/4
f 318/3/4 315/3/4 319/3/4
f 307/4/4 308/4/4 320/4/4
f 308/3/4 309/3/4 320/3/4
f 320/3/4 309/3/4 321/3/4
f 321/3/4 309/3/4 322/3/4
f 309/4/4 318/4/4 323/4/4
f 322/3/4 309/3/4 323/3/4
f 323/4/4 318/4/4 324/4/4
f 302/3/4 307/3/4 325/3/4
f 307/4/4 320/4/4 325/4/4
f 320/4/4 321/4/4 325/4/4
f 325/4/4 321/4/4 326/4/4
f 321/3/4 322/3/4 327/3/4
f 326/4/4 321/4/4 327/4/4
f 322/4/4 323/4/4 328/4/4
f 327/3/4 322/3/4 328/3/4
f 328/4/4 323/4/4 329/4/4
f 329/4/4 323/4/4 330/4/4
f 325/3/4 326/3/4 331/3/4
f 302/3/4 325/3/4 331/3/4
f 331/3/4 326/3/4 332/3/4
f 326/4/4 327/4/4 333/4/4
f 332/3/4 326/3/4 333/3/4
f 327/4/4 328/4/4 333/4/4
f 328/3/4 329/3/4 334/3/4
f 333/4/4 328/4/4 334/4/4
f 334/3/4 329/3/4 335/3/4
f 332/3/4 333/3/4 337/3/4
f 333/3/4 334/3/4 337/3/4
f 337/3/4 334/3/4 338/3/4
f 335/3/4 336/3/4 339/3/4
f 339/3/4 336/3/4 340/3/4
f 343/3/5 342/3/5 341/3/5
f 344/3/5 342/3/5 343/3/5
f 347/3/5 346/3/5 345/3/5
f 348/3/5 346/3/5 347/3/5
f 351/3/5 350/3/5 349/3/5
f 352/3/5 350/3/5 351/3/5
f 355/1/5 354/1/5 353/1/5
f 356/1/5 354/1/5 355/1/5
f 359/1/5 358/1/5 357/1/5
f 360/1/5 358/1/5 359/1/5
f 365/2/5 362/2/5 361/2/5
f 366/2/5 362/2/5 365/2/5
f 367/2/5 364/2/5 363/2/5
f 368/2/5 364/2/5 367/2/5
f 369/3/6 370/3/6 371/3/6
f 371/3/6 370/3/6 372/3/6
f 373/3/6 374/3/6 375/3/6
f 375/3/6 374/3/6 376/3/6
f 377/3/6 378/3/6 379/3/6
f 379/3/6 378/3/6 380/3/6
f 381/4/6 382/4/6 385/4/6
f 385/4/6 382/4/6 386/4/6
f 383/3/6 384/3/6 387/3/6
f 387/3/6 384/3/6 390/3/6
f 388/4/6 389/4/6 391/4/6
f 391/4/6 389/4/6 392/4/6
f 390/3/6 384/3/6 393/3/6
f 393/3/6 384/3/6 394/3/6
f 395/4/6 396/4/6 397/4/6
f 397/4/6 396/4/6 398/4/6
f 399/3/6 400/3/6 402/3/6
f 400/2/6 401/2/6 403/2/6
f 402/3/6 400/3/6 403/3/6
f 403/2/6 401/2/6 404/2/6
f 405/1/6 406/1/6 409/1/6
f 409/1/6 406/1/6 410/1/6
f 407/3/6 408/3/6 411/3/6
f 411/3/6 408/3/6 412/3/6
f 413/1/6 414/1/6 415/1/6
f 415/1/6 414/1/6 416/1/6
f 417/5/6 418/5/6 419/5/6
f 419/5/6 418/5/6 420/5/6
f 421/4/6 422/4/6 423/4/6
f 423/4/6 422/4/6 424/4/6
f 425/2/6 426/2/6 429/2/6
f 429/2/6 426/2/6 430/2/6
f 427/4/6 428/4/6 431/4/6
f 431/4/6 428/4/6 432/4/6
f 433/4/6 434/4/6 435/4/6
f 433/4/6 435/4/6 439/4/6
f 435/5/6 436/5/6 439/5/6
f 439/5/6 436/5/6 440/5/6
f 437/1/6 438/1/6 441/1/6
f 441/1/6 438/1/6 442/1/6
f 433/4/6 439/4/6 443/4/6
f 443/4/6 439/4/6 444/4/6
f 445/5/6 446/5/6 447/5/6
f 447/5/6 446/5/6 448/5/6
f 449/1/6 450/1/6 451/1/6
f 451/1/6 450/1/6 452/1/6
f 453/2/6 454/2/6 457/2/6
f 457/2/6 454/2/6 458/2/6
f 455/1/6 456/1/6 459/1/6
f 459/1/6 456/1/6 460/1/6
f 461/1/6 462/1/6 463/1/6
f 463/1/6 462/1/6 464/1/6
