# MagicaVoxel @ Ephtracy

# group
o 

# material
mtllib Boss_Table.mtl
usemtl palette

# normals
vn -1 0 0
vn 1 0 0
vn 0 0 1
vn 0 0 -1
vn 0 -1 0
vn 0 1 0

# texcoords
vt 0.208984 0.5
vt 0.287109 0.5
vt 0.994141 0.5

# verts
v 0 2 0
v 0 2 -1.6
v 0 3.3 0
v 0 3.3 -1.6
v 0 3.4 0
v 0 3.4 -1.6
v 0 3.5 0
v 0 3.5 -1.6
v 0 3.6 0
v 0 3.6 -1.6
v 3.2 2 0
v 3.2 2 -1.6
v 3.2 3.3 0
v 3.2 3.3 -1.6
v 3.2 3.4 0
v 3.2 3.4 -1.6
v 3.2 3.5 0
v 3.2 3.5 -1.6
v 3.2 3.6 0
v 3.2 3.6 -1.6
v 0 2 0
v 0 3.3 0
v 0 3.4 0
v 0 3.5 0
v 0 3.6 0
v 0.2 2 0
v 0.2 3.2 0
v 0.3 2 0
v 0.3 3.1 0
v 0.3 3.2 0
v 0.6 2 0
v 0.6 2.9 0
v 0.7 2 0
v 0.7 2.8 0
v 0.7 2.9 0
v 2.6 2 0
v 2.6 2.8 0
v 2.7 2 0
v 2.7 2.9 0
v 2.9 2 0
v 2.9 3.1 0
v 3 2 0
v 3 3.2 0
v 3.2 2 0
v 3.2 3.3 0
v 3.2 3.4 0
v 3.2 3.5 0
v 3.2 3.6 0
v 0 2 -1.6
v 0 3.3 -1.6
v 0 3.4 -1.6
v 0 3.5 -1.6
v 0 3.6 -1.6
v 0.2 2 -1.6
v 0.2 3.2 -1.6
v 0.3 2 -1.6
v 0.3 3.1 -1.6
v 0.3 3.2 -1.6
v 0.6 2 -1.6
v 0.6 2.9 -1.6
v 0.7 2 -1.6
v 0.7 2.8 -1.6
v 0.7 2.9 -1.6
v 2.6 2 -1.6
v 2.6 2.8 -1.6
v 2.7 2 -1.6
v 2.7 2.9 -1.6
v 2.9 2 -1.6
v 2.9 3.1 -1.6
v 3 2 -1.6
v 3 3.2 -1.6
v 3.2 2 -1.6
v 3.2 3.3 -1.6
v 3.2 3.4 -1.6
v 3.2 3.5 -1.6
v 3.2 3.6 -1.6
v 0 2 0
v 0.2 2 0
v 0.3 2 0
v 0.6 2 0
v 0.7 2 0
v 2.6 2 0
v 2.7 2 0
v 2.9 2 0
v 3 2 0
v 3.2 2 0
v 0 2 -1.6
v 0.2 2 -1.6
v 0.3 2 -1.6
v 0.6 2 -1.6
v 0.7 2 -1.6
v 2.6 2 -1.6
v 2.7 2 -1.6
v 2.9 2 -1.6
v 3 2 -1.6
v 3.2 2 -1.6
v 0 3.6 0
v 3.2 3.6 0
v 0 3.6 -1.6
v 3.2 3.6 -1.6

# faces
f 3/1/1 2/1/1 1/1/1
f 4/1/1 2/1/1 3/1/1
f 5/3/1 4/3/1 3/3/1
f 6/3/1 4/3/1 5/3/1
f 7/1/1 6/1/1 5/1/1
f 8/1/1 6/1/1 7/1/1
f 9/2/1 8/2/1 7/2/1
f 10/2/1 8/2/1 9/2/1
f 11/1/2 12/1/2 13/1/2
f 13/1/2 12/1/2 14/1/2
f 13/3/2 14/3/2 15/3/2
f 15/3/2 14/3/2 16/3/2
f 15/1/2 16/1/2 17/1/2
f 17/1/2 16/1/2 18/1/2
f 17/2/2 18/2/2 19/2/2
f 19/2/2 18/2/2 20/2/2
f 26/1/3 22/1/3 21/1/3
f 27/1/3 22/1/3 26/1/3
f 28/2/3 27/2/3 26/2/3
f 29/2/3 27/2/3 28/2/3
f 30/1/3 22/1/3 27/1/3
f 30/2/3 27/2/3 29/2/3
f 31/1/3 29/1/3 28/1/3
f 32/1/3 29/1/3 31/1/3
f 33/3/3 32/3/3 31/3/3
f 34/3/3 32/3/3 33/3/3
f 35/1/3 29/1/3 32/1/3
f 35/3/3 32/3/3 34/3/3
f 36/1/3 34/1/3 33/1/3
f 37/2/3 35/2/3 34/2/3
f 37/1/3 34/1/3 36/1/3
f 38/2/3 37/2/3 36/2/3
f 39/1/3 29/1/3 35/1/3
f 39/2/3 37/2/3 38/2/3
f 39/2/3 35/2/3 37/2/3
f 40/1/3 39/1/3 38/1/3
f 41/3/3 30/3/3 29/3/3
f 41/1/3 39/1/3 40/1/3
f 41/1/3 29/1/3 39/1/3
f 42/3/3 41/3/3 40/3/3
f 43/1/3 22/1/3 30/1/3
f 43/3/3 41/3/3 42/3/3
f 43/3/3 30/3/3 41/3/3
f 44/1/3 43/1/3 42/1/3
f 45/3/3 23/3/3 22/3/3
f 45/1/3 43/1/3 44/1/3
f 45/1/3 22/1/3 43/1/3
f 46/1/3 24/1/3 23/1/3
f 46/3/3 23/3/3 45/3/3
f 47/2/3 25/2/3 24/2/3
f 47/1/3 24/1/3 46/1/3
f 48/2/3 25/2/3 47/2/3
f 49/1/4 50/1/4 54/1/4
f 54/1/4 50/1/4 55/1/4
f 54/2/4 55/2/4 56/2/4
f 56/2/4 55/2/4 57/2/4
f 55/1/4 50/1/4 58/1/4
f 57/2/4 55/2/4 58/2/4
f 56/1/4 57/1/4 59/1/4
f 59/1/4 57/1/4 60/1/4
f 59/3/4 60/3/4 61/3/4
f 61/3/4 60/3/4 62/3/4
f 60/1/4 57/1/4 63/1/4
f 62/3/4 60/3/4 63/3/4
f 61/1/4 62/1/4 64/1/4
f 62/2/4 63/2/4 65/2/4
f 64/1/4 62/1/4 65/1/4
f 64/2/4 65/2/4 66/2/4
f 63/1/4 57/1/4 67/1/4
f 66/2/4 65/2/4 67/2/4
f 65/2/4 63/2/4 67/2/4
f 66/1/4 67/1/4 68/1/4
f 57/3/4 58/3/4 69/3/4
f 68/1/4 67/1/4 69/1/4
f 67/1/4 57/1/4 69/1/4
f 68/3/4 69/3/4 70/3/4
f 58/1/4 50/1/4 71/1/4
f 70/3/4 69/3/4 71/3/4
f 69/3/4 58/3/4 71/3/4
f 70/1/4 71/1/4 72/1/4
f 50/3/4 51/3/4 73/3/4
f 72/1/4 71/1/4 73/1/4
f 71/1/4 50/1/4 73/1/4
f 51/1/4 52/1/4 74/1/4
f 73/3/4 51/3/4 74/3/4
f 52/2/4 53/2/4 75/2/4
f 74/1/4 52/1/4 75/1/4
f 75/2/4 53/2/4 76/2/4
f 87/1/5 78/1/5 77/1/5
f 88/2/5 79/2/5 78/2/5
f 88/1/5 78/1/5 87/1/5
f 89/1/5 80/1/5 79/1/5
f 89/2/5 79/2/5 88/2/5
f 90/3/5 81/3/5 80/3/5
f 90/1/5 80/1/5 89/1/5
f 91/1/5 82/1/5 81/1/5
f 91/3/5 81/3/5 90/3/5
f 92/2/5 83/2/5 82/2/5
f 92/1/5 82/1/5 91/1/5
f 93/1/5 84/1/5 83/1/5
f 93/2/5 83/2/5 92/2/5
f 94/3/5 85/3/5 84/3/5
f 94/1/5 84/1/5 93/1/5
f 95/1/5 86/1/5 85/1/5
f 95/3/5 85/3/5 94/3/5
f 96/1/5 86/1/5 95/1/5
f 97/2/6 98/2/6 99/2/6
f 99/2/6 98/2/6 100/2/6
