# MagicaVoxel @ Ephtracy

# group
o 

# material
mtllib Takeshi_Stand.mtl
usemtl palette

# normals
vn -1 0 0
vn 1 0 0
vn 0 0 1
vn 0 0 -1
vn 0 -1 0
vn 0 1 0

# texcoords
vt 0.142578 0.5
vt 0.416016 0.5
vt 0.716797 0.5

# verts
v 0 3.2 0
v 0 3.2 -0.4
v 0 3.4 0
v 0 3.4 -0.4
v 0 3.8 0
v 0 3.8 -0.4
v 0.1 3.1 0
v 0.1 3.1 -0.4
v 0.1 3.2 0
v 0.1 3.2 -0.4
v 0.1 3.8 0
v 0.1 3.8 -0.4
v 0.1 4.1 0
v 0.1 4.1 -0.4
v 0.2 4.1 0
v 0.2 4.1 -0.4
v 0.2 4.3 0
v 0.2 4.3 -0.4
v 0.2 4.8 0
v 0.2 4.8 -0.4
v 0.2 5.1 0
v 0.2 5.1 -0.4
v 0.3 2 0
v 0.3 2 -0.4
v 0.3 2.2 0
v 0.3 2.2 -0.4
v 0.3 2.9 0
v 0.3 2.9 -0.4
v 0.3 3.1 0
v 0.3 3.1 -0.4
v 0.3 4.3 0
v 0.3 4.3 -0.4
v 0.3 4.4 0
v 0.3 4.4 -0.4
v 0.3 4.6 0
v 0.3 4.6 -0.4
v 0.3 4.7 0
v 0.3 4.7 -0.4
v 0.3 4.8 0
v 0.3 4.8 -0.4
v 0.3 5.1 0
v 0.3 5.1 -0.4
v 0.3 5.2 0
v 0.3 5.2 -0.4
v 0.4 2.2 0
v 0.4 2.2 -0.4
v 0.4 2.3 0
v 0.4 2.3 -0.4
v 0.4 2.5 0
v 0.4 2.5 -0.4
v 0.4 2.8 0
v 0.4 2.8 -0.4
v 0.4 2.9 0
v 0.4 2.9 -0.4
v 0.4 4.5 0
v 0.4 4.5 -0.4
v 0.4 4.6 0
v 0.4 4.6 -0.4
v 0.5 2.5 0
v 0.5 2.5 -0.4
v 0.5 2.8 0
v 0.5 2.8 -0.4
v 0.5 4.4 0
v 0.5 4.4 -0.4
v 0.5 4.5 0
v 0.5 4.5 -0.4
v 1 2.4 0
v 1 2.4 -0.4
v 1 2.5 0
v 1 2.5 -0.4
v 1.1 2.3 0
v 1.1 2.3 -0.4
v 1.1 2.4 0
v 1.1 2.4 -0.4
v 1.2 2.2 0
v 1.2 2.2 -0.4
v 1.2 2.3 0
v 1.2 2.3 -0.4
v 1.4 2.7 0
v 1.4 2.7 -0.4
v 1.4 2.8 0
v 1.4 2.8 -0.4
v 0.8 2.2 0
v 0.8 2.2 -0.4
v 0.8 2.3 0
v 0.8 2.3 -0.4
v 0.9 2.3 0
v 0.9 2.3 -0.4
v 0.9 2.5 0
v 0.9 2.5 -0.4
v 1 2 0
v 1 2 -0.4
v 1 2.2 0
v 1 2.2 -0.4
v 1 4.4 0
v 1 4.4 -0.4
v 1 4.5 0
v 1 4.5 -0.4
v 1.1 4.2 0
v 1.1 4.2 -0.4
v 1.1 4.4 0
v 1.1 4.4 -0.4
v 1.1 4.5 0
v 1.1 4.5 -0.4
v 1.1 4.6 0
v 1.1 4.6 -0.4
v 1.1 4.7 0
v 1.1 4.7 -0.4
v 1.1 4.9 0
v 1.1 4.9 -0.4
v 1.1 5 0
v 1.1 5 -0.4
v 1.1 5.1 0
v 1.1 5.1 -0.4
v 1.2 2.9 0
v 1.2 2.9 -0.4
v 1.2 3.1 0
v 1.2 3.1 -0.4
v 1.2 4 0
v 1.2 4 -0.4
v 1.2 4.2 0
v 1.2 4.2 -0.4
v 1.2 5.1 0
v 1.2 5.1 -0.4
v 1.2 5.2 0
v 1.2 5.2 -0.4
v 1.3 2.2 0
v 1.3 2.2 -0.4
v 1.3 2.3 0
v 1.3 2.3 -0.4
v 1.3 2.7 0
v 1.3 2.7 -0.4
v 1.3 2.9 0
v 1.3 2.9 -0.4
v 1.3 3.1 0
v 1.3 3.1 -0.4
v 1.3 3.2 0
v 1.3 3.2 -0.4
v 1.3 3.7 0
v 1.3 3.7 -0.4
v 1.3 4 0
v 1.3 4 -0.4
v 1.4 2.3 0
v 1.4 2.3 -0.4
v 1.4 2.4 0
v 1.4 2.4 -0.4
v 1.4 3.6 0
v 1.4 3.6 -0.4
v 1.4 3.7 0
v 1.4 3.7 -0.4
v 1.5 2.4 0
v 1.5 2.4 -0.4
v 1.5 2.5 0
v 1.5 2.5 -0.4
v 1.5 2.7 0
v 1.5 2.7 -0.4
v 1.5 2.8 0
v 1.5 2.8 -0.4
v 1.5 3.2 0
v 1.5 3.2 -0.4
v 1.5 3.3 0
v 1.5 3.3 -0.4
v 1.5 3.5 0
v 1.5 3.5 -0.4
v 1.5 3.6 0
v 1.5 3.6 -0.4
v 1.6 2.5 0
v 1.6 2.5 -0.4
v 1.6 2.7 0
v 1.6 2.7 -0.4
v 1.6 3.3 0
v 1.6 3.3 -0.4
v 1.6 3.5 0
v 1.6 3.5 -0.4
v 0 3.2 0
v 0 3.4 0
v 0 3.8 0
v 0.1 3.1 0
v 0.1 3.2 0
v 0.1 3.8 0
v 0.1 4.1 0
v 0.2 4.1 0
v 0.2 4.3 0
v 0.2 4.8 0
v 0.2 5.1 0
v 0.3 2 0
v 0.3 2.2 0
v 0.3 2.9 0
v 0.3 3.1 0
v 0.3 3.3 0
v 0.3 3.4 0
v 0.3 4.3 0
v 0.3 4.4 0
v 0.3 4.6 0
v 0.3 4.7 0
v 0.3 4.8 0
v 0.3 4.9 0
v 0.3 5.1 0
v 0.3 5.2 0
v 0.4 2.2 0
v 0.4 2.3 0
v 0.4 2.5 0
v 0.4 2.8 0
v 0.4 2.9 0
v 0.4 3.1 0
v 0.4 3.2 0
v 0.4 3.3 0
v 0.4 4.5 0
v 0.4 4.6 0
v 0.4 4.7 0
v 0.4 4.8 0
v 0.4 4.9 0
v 0.4 5 0
v 0.5 2.5 0
v 0.5 2.8 0
v 0.5 3.2 0
v 0.5 3.3 0
v 0.5 3.6 0
v 0.5 4.4 0
v 0.5 4.5 0
v 0.5 4.7 0
v 0.5 4.8 0
v 0.5 4.9 0
v 0.5 5 0
v 0.6 3.3 0
v 0.6 3.6 0
v 0.6 3.8 0
v 0.6 4.3 0
v 0.6 4.4 0
v 0.6 4.7 0
v 0.6 4.8 0
v 0.6 4.9 0
v 0.6 5 0
v 0.7 3.6 0
v 0.7 3.8 0
v 0.7 4.2 0
v 0.7 4.3 0
v 0.7 4.5 0
v 0.7 4.6 0
v 0.7 4.7 0
v 0.7 4.9 0
v 0.8 2.1 0
v 0.8 2.2 0
v 0.8 2.3 0
v 0.8 3.9 0
v 0.8 4.2 0
v 0.8 4.3 0
v 0.8 4.5 0
v 0.8 4.6 0
v 0.8 4.7 0
v 0.8 4.9 0
v 0.9 2.1 0
v 0.9 2.2 0
v 0.9 2.3 0
v 0.9 2.5 0
v 0.9 3.7 0
v 0.9 3.8 0
v 0.9 3.9 0
v 0.9 4.3 0
v 0.9 4.4 0
v 1 2 0
v 1 2.2 0
v 1 2.4 0
v 1 2.5 0
v 1 3.7 0
v 1 3.8 0
v 1 3.9 0
v 1 4.1 0
v 1 4.3 0
v 1 4.4 0
v 1 4.5 0
v 1 4.6 0
v 1 4.7 0
v 1 4.9 0
v 1.1 2.3 0
v 1.1 2.4 0
v 1.1 2.5 0
v 1.1 3.9 0
v 1.1 4.1 0
v 1.1 4.2 0
v 1.1 4.4 0
v 1.1 4.5 0
v 1.1 4.6 0
v 1.1 4.7 0
v 1.1 4.9 0
v 1.1 5 0
v 1.1 5.1 0
v 1.2 2.2 0
v 1.2 2.3 0
v 1.2 2.5 0
v 1.2 2.6 0
v 1.2 2.9 0
v 1.2 3.1 0
v 1.2 4 0
v 1.2 4.2 0
v 1.2 5.1 0
v 1.2 5.2 0
v 1.3 2.2 0
v 1.3 2.3 0
v 1.3 2.5 0
v 1.3 2.6 0
v 1.3 2.7 0
v 1.3 2.9 0
v 1.3 3.1 0
v 1.3 3.2 0
v 1.3 3.4 0
v 1.3 3.7 0
v 1.3 4 0
v 1.4 2.3 0
v 1.4 2.4 0
v 1.4 2.5 0
v 1.4 2.6 0
v 1.4 2.7 0
v 1.4 2.8 0
v 1.4 3.4 0
v 1.4 3.5 0
v 1.4 3.6 0
v 1.4 3.7 0
v 1.5 2.4 0
v 1.5 2.5 0
v 1.5 2.6 0
v 1.5 2.7 0
v 1.5 2.8 0
v 1.5 3.2 0
v 1.5 3.3 0
v 1.5 3.5 0
v 1.5 3.6 0
v 1.6 2.5 0
v 1.6 2.7 0
v 1.6 3.3 0
v 1.6 3.5 0
v 0 3.2 -0.4
v 0 3.4 -0.4
v 0 3.8 -0.4
v 0.1 3.1 -0.4
v 0.1 3.2 -0.4
v 0.1 3.8 -0.4
v 0.1 4.1 -0.4
v 0.2 4.1 -0.4
v 0.2 4.3 -0.4
v 0.2 4.8 -0.4
v 0.2 5.1 -0.4
v 0.3 2 -0.4
v 0.3 2.2 -0.4
v 0.3 2.9 -0.4
v 0.3 3.1 -0.4
v 0.3 3.3 -0.4
v 0.3 3.4 -0.4
v 0.3 4.3 -0.4
v 0.3 4.4 -0.4
v 0.3 4.6 -0.4
v 0.3 4.7 -0.4
v 0.3 4.8 -0.4
v 0.3 4.9 -0.4
v 0.3 5.1 -0.4
v 0.3 5.2 -0.4
v 0.4 2.2 -0.4
v 0.4 2.3 -0.4
v 0.4 2.5 -0.4
v 0.4 2.8 -0.4
v 0.4 2.9 -0.4
v 0.4 3.1 -0.4
v 0.4 3.2 -0.4
v 0.4 3.3 -0.4
v 0.4 4.5 -0.4
v 0.4 4.6 -0.4
v 0.4 4.7 -0.4
v 0.4 4.8 -0.4
v 0.4 4.9 -0.4
v 0.4 5 -0.4
v 0.5 2.5 -0.4
v 0.5 2.8 -0.4
v 0.5 3.2 -0.4
v 0.5 3.3 -0.4
v 0.5 3.6 -0.4
v 0.5 4.4 -0.4
v 0.5 4.5 -0.4
v 0.5 4.7 -0.4
v 0.5 4.8 -0.4
v 0.5 4.9 -0.4
v 0.5 5 -0.4
v 0.6 3.3 -0.4
v 0.6 3.6 -0.4
v 0.6 3.8 -0.4
v 0.6 4.3 -0.4
v 0.6 4.4 -0.4
v 0.6 4.7 -0.4
v 0.6 4.8 -0.4
v 0.6 4.9 -0.4
v 0.6 5 -0.4
v 0.7 3.6 -0.4
v 0.7 3.8 -0.4
v 0.7 4.2 -0.4
v 0.7 4.3 -0.4
v 0.7 4.5 -0.4
v 0.7 4.6 -0.4
v 0.7 4.7 -0.4
v 0.7 4.9 -0.4
v 0.8 2.1 -0.4
v 0.8 2.2 -0.4
v 0.8 2.3 -0.4
v 0.8 3.9 -0.4
v 0.8 4.2 -0.4
v 0.8 4.3 -0.4
v 0.8 4.5 -0.4
v 0.8 4.6 -0.4
v 0.8 4.7 -0.4
v 0.8 4.9 -0.4
v 0.9 2.1 -0.4
v 0.9 2.2 -0.4
v 0.9 2.3 -0.4
v 0.9 2.5 -0.4
v 0.9 3.7 -0.4
v 0.9 3.8 -0.4
v 0.9 3.9 -0.4
v 0.9 4.3 -0.4
v 0.9 4.4 -0.4
v 1 2 -0.4
v 1 2.2 -0.4
v 1 2.4 -0.4
v 1 2.5 -0.4
v 1 3.7 -0.4
v 1 3.8 -0.4
v 1 3.9 -0.4
v 1 4.1 -0.4
v 1 4.3 -0.4
v 1 4.4 -0.4
v 1 4.5 -0.4
v 1 4.6 -0.4
v 1 4.7 -0.4
v 1 4.9 -0.4
v 1.1 2.3 -0.4
v 1.1 2.4 -0.4
v 1.1 2.5 -0.4
v 1.1 3.9 -0.4
v 1.1 4.1 -0.4
v 1.1 4.2 -0.4
v 1.1 4.4 -0.4
v 1.1 4.5 -0.4
v 1.1 4.6 -0.4
v 1.1 4.7 -0.4
v 1.1 4.9 -0.4
v 1.1 5 -0.4
v 1.1 5.1 -0.4
v 1.2 2.2 -0.4
v 1.2 2.3 -0.4
v 1.2 2.5 -0.4
v 1.2 2.6 -0.4
v 1.2 2.9 -0.4
v 1.2 3.1 -0.4
v 1.2 4 -0.4
v 1.2 4.2 -0.4
v 1.2 5.1 -0.4
v 1.2 5.2 -0.4
v 1.3 2.2 -0.4
v 1.3 2.3 -0.4
v 1.3 2.5 -0.4
v 1.3 2.6 -0.4
v 1.3 2.7 -0.4
v 1.3 2.9 -0.4
v 1.3 3.1 -0.4
v 1.3 3.2 -0.4
v 1.3 3.4 -0.4
v 1.3 3.7 -0.4
v 1.3 4 -0.4
v 1.4 2.3 -0.4
v 1.4 2.4 -0.4
v 1.4 2.5 -0.4
v 1.4 2.6 -0.4
v 1.4 2.7 -0.4
v 1.4 2.8 -0.4
v 1.4 3.4 -0.4
v 1.4 3.5 -0.4
v 1.4 3.6 -0.4
v 1.4 3.7 -0.4
v 1.5 2.4 -0.4
v 1.5 2.5 -0.4
v 1.5 2.6 -0.4
v 1.5 2.7 -0.4
v 1.5 2.8 -0.4
v 1.5 3.2 -0.4
v 1.5 3.3 -0.4
v 1.5 3.5 -0.4
v 1.5 3.6 -0.4
v 1.6 2.5 -0.4
v 1.6 2.7 -0.4
v 1.6 3.3 -0.4
v 1.6 3.5 -0.4
v 0.3 2 0
v 1 2 0
v 0.3 2 -0.4
v 1 2 -0.4
v 1.2 2.2 0
v 1.3 2.2 0
v 1.2 2.2 -0.4
v 1.3 2.2 -0.4
v 0.8 2.3 0
v 0.9 2.3 0
v 1.1 2.3 0
v 1.2 2.3 0
v 1.3 2.3 0
v 1.4 2.3 0
v 0.8 2.3 -0.4
v 0.9 2.3 -0.4
v 1.1 2.3 -0.4
v 1.2 2.3 -0.4
v 1.3 2.3 -0.4
v 1.4 2.3 -0.4
v 1 2.4 0
v 1.1 2.4 0
v 1.4 2.4 0
v 1.5 2.4 0
v 1 2.4 -0.4
v 1.1 2.4 -0.4
v 1.4 2.4 -0.4
v 1.5 2.4 -0.4
v 0.9 2.5 0
v 1 2.5 0
v 1.5 2.5 0
v 1.6 2.5 0
v 0.9 2.5 -0.4
v 1 2.5 -0.4
v 1.5 2.5 -0.4
v 1.6 2.5 -0.4
v 0.4 2.8 0
v 0.5 2.8 0
v 0.4 2.8 -0.4
v 0.5 2.8 -0.4
v 0.3 2.9 0
v 0.4 2.9 0
v 0.3 2.9 -0.4
v 0.4 2.9 -0.4
v 0.1 3.1 0
v 0.3 3.1 0
v 1.2 3.1 0
v 1.3 3.1 0
v 0.1 3.1 -0.4
v 0.3 3.1 -0.4
v 1.2 3.1 -0.4
v 1.3 3.1 -0.4
v 0 3.2 0
v 0.1 3.2 0
v 1.3 3.2 0
v 1.5 3.2 0
v 0 3.2 -0.4
v 0.1 3.2 -0.4
v 1.3 3.2 -0.4
v 1.5 3.2 -0.4
v 1.5 3.3 0
v 1.6 3.3 0
v 1.5 3.3 -0.4
v 1.6 3.3 -0.4
v 0.4 4.5 0
v 0.5 4.5 0
v 1 4.5 0
v 1.1 4.5 0
v 0.4 4.5 -0.4
v 0.5 4.5 -0.4
v 1 4.5 -0.4
v 1.1 4.5 -0.4
v 0.3 4.6 0
v 0.4 4.6 0
v 0.3 4.6 -0.4
v 0.4 4.6 -0.4
v 0.2 4.8 0
v 0.3 4.8 0
v 0.2 4.8 -0.4
v 0.3 4.8 -0.4
v 1.1 5.1 0
v 1.2 5.1 0
v 1.1 5.1 -0.4
v 1.2 5.1 -0.4
v 0.3 2.2 0
v 0.4 2.2 0
v 0.8 2.2 0
v 0.9 2.2 0
v 1 2.2 0
v 0.3 2.2 -0.4
v 0.4 2.2 -0.4
v 0.8 2.2 -0.4
v 0.9 2.2 -0.4
v 1 2.2 -0.4
v 0.4 2.5 0
v 0.5 2.5 0
v 0.4 2.5 -0.4
v 0.5 2.5 -0.4
v 1.3 2.7 0
v 1.4 2.7 0
v 1.5 2.7 0
v 1.6 2.7 0
v 1.3 2.7 -0.4
v 1.4 2.7 -0.4
v 1.5 2.7 -0.4
v 1.6 2.7 -0.4
v 1.4 2.8 0
v 1.5 2.8 0
v 1.4 2.8 -0.4
v 1.5 2.8 -0.4
v 1.2 2.9 0
v 1.3 2.9 0
v 1.2 2.9 -0.4
v 1.3 2.9 -0.4
v 1.5 3.5 0
v 1.6 3.5 0
v 1.5 3.5 -0.4
v 1.6 3.5 -0.4
v 1.4 3.6 0
v 1.5 3.6 0
v 1.4 3.6 -0.4
v 1.5 3.6 -0.4
v 1.3 3.7 0
v 1.4 3.7 0
v 1.3 3.7 -0.4
v 1.4 3.7 -0.4
v 0 3.8 0
v 0.1 3.8 0
v 0 3.8 -0.4
v 0.1 3.8 -0.4
v 1.2 4 0
v 1.3 4 0
v 1.2 4 -0.4
v 1.3 4 -0.4
v 0.1 4.1 0
v 0.2 4.1 0
v 0.1 4.1 -0.4
v 0.2 4.1 -0.4
v 1.1 4.2 0
v 1.2 4.2 0
v 1.1 4.2 -0.4
v 1.2 4.2 -0.4
v 0.2 4.3 0
v 0.3 4.3 0
v 0.2 4.3 -0.4
v 0.3 4.3 -0.4
v 0.3 4.4 0
v 0.5 4.4 0
v 1 4.4 0
v 1.1 4.4 0
v 0.3 4.4 -0.4
v 0.5 4.4 -0.4
v 1 4.4 -0.4
v 1.1 4.4 -0.4
v 0.2 5.1 0
v 0.3 5.1 0
v 0.2 5.1 -0.4
v 0.3 5.1 -0.4
v 0.3 5.2 0
v 1.2 5.2 0
v 0.3 5.2 -0.4
v 1.2 5.2 -0.4

# faces
f 3/2/1 2/2/1 1/2/1
f 4/2/1 2/2/1 3/2/1
f 5/3/1 4/3/1 3/3/1
f 6/3/1 4/3/1 5/3/1
f 9/2/1 8/2/1 7/2/1
f 10/2/1 8/2/1 9/2/1
f 13/3/1 12/3/1 11/3/1
f 14/3/1 12/3/1 13/3/1
f 17/3/1 16/3/1 15/3/1
f 18/3/1 16/3/1 17/3/1
f 21/1/1 20/1/1 19/1/1
f 22/1/1 20/1/1 21/1/1
f 25/1/1 24/1/1 23/1/1
f 26/1/1 24/1/1 25/1/1
f 29/3/1 28/3/1 27/3/1
f 30/3/1 28/3/1 29/3/1
f 33/3/1 32/3/1 31/3/1
f 34/3/1 32/3/1 33/3/1
f 37/2/1 36/2/1 35/2/1
f 38/2/1 36/2/1 37/2/1
f 39/1/1 38/1/1 37/1/1
f 40/1/1 38/1/1 39/1/1
f 43/1/1 42/1/1 41/1/1
f 44/1/1 42/1/1 43/1/1
f 47/1/1 46/1/1 45/1/1
f 48/1/1 46/1/1 47/1/1
f 49/3/1 48/3/1 47/3/1
f 50/3/1 48/3/1 49/3/1
f 53/3/1 52/3/1 51/3/1
f 54/3/1 52/3/1 53/3/1
f 57/2/1 56/2/1 55/2/1
f 58/2/1 56/2/1 57/2/1
f 61/3/1 60/3/1 59/3/1
f 62/3/1 60/3/1 61/3/1
f 65/2/1 64/2/1 63/2/1
f 66/2/1 64/2/1 65/2/1
f 69/3/1 68/3/1 67/3/1
f 70/3/1 68/3/1 69/3/1
f 73/1/1 72/1/1 71/1/1
f 74/1/1 72/1/1 73/1/1
f 77/1/1 76/1/1 75/1/1
f 78/1/1 76/1/1 77/1/1
f 81/1/1 80/1/1 79/1/1
f 82/1/1 80/1/1 81/1/1
f 83/1/2 84/1/2 85/1/2
f 85/1/2 84/1/2 86/1/2
f 87/3/2 88/3/2 89/3/2
f 89/3/2 88/3/2 90/3/2
f 91/1/2 92/1/2 93/1/2
f 93/1/2 92/1/2 94/1/2
f 95/1/2 96/1/2 97/1/2
f 97/1/2 96/1/2 98/1/2
f 99/3/2 100/3/2 101/3/2
f 101/3/2 100/3/2 102/3/2
f 103/1/2 104/1/2 105/1/2
f 105/1/2 104/1/2 106/1/2
f 105/2/2 106/2/2 107/2/2
f 107/2/2 106/2/2 108/2/2
f 107/1/2 108/1/2 109/1/2
f 109/1/2 108/1/2 110/1/2
f 109/2/2 110/2/2 111/2/2
f 111/2/2 110/2/2 112/2/2
f 111/1/2 112/1/2 113/1/2
f 113/1/2 112/1/2 114/1/2
f 115/3/2 116/3/2 117/3/2
f 117/3/2 116/3/2 118/3/2
f 119/3/2 120/3/2 121/3/2
f 121/3/2 120/3/2 122/3/2
f 123/1/2 124/1/2 125/1/2
f 125/1/2 124/1/2 126/1/2
f 127/1/2 128/1/2 129/1/2
f 129/1/2 128/1/2 130/1/2
f 131/3/2 132/3/2 133/3/2
f 133/3/2 132/3/2 134/3/2
f 135/3/2 136/3/2 137/3/2
f 137/3/2 136/3/2 138/3/2
f 139/3/2 140/3/2 141/3/2
f 141/3/2 140/3/2 142/3/2
f 143/1/2 144/1/2 145/1/2
f 145/1/2 144/1/2 146/1/2
f 147/3/2 148/3/2 149/3/2
f 149/3/2 148/3/2 150/3/2
f 151/1/2 152/1/2 153/1/2
f 153/1/2 152/1/2 154/1/2
f 155/1/2 156/1/2 157/1/2
f 157/1/2 156/1/2 158/1/2
f 159/2/2 160/2/2 161/2/2
f 161/2/2 160/2/2 162/2/2
f 163/3/2 164/3/2 165/3/2
f 165/3/2 164/3/2 166/3/2
f 167/1/2 168/1/2 169/1/2
f 169/1/2 168/1/2 170/1/2
f 171/2/2 172/2/2 173/2/2
f 173/2/2 172/2/2 174/2/2
f 179/2/3 176/2/3 175/2/3
f 180/3/3 177/3/3 176/3/3
f 182/3/3 181/3/3 180/3/3
f 189/2/3 179/2/3 178/2/3
f 190/2/3 176/2/3 179/2/3
f 190/2/3 179/2/3 189/2/3
f 191/3/3 180/3/3 176/3/3
f 191/2/3 176/2/3 190/2/3
f 191/3/3 182/3/3 180/3/3
f 191/3/3 183/3/3 182/3/3
f 192/3/3 183/3/3 191/3/3
f 196/1/3 185/1/3 184/1/3
f 197/1/3 185/1/3 196/1/3
f 198/1/3 185/1/3 197/1/3
f 200/1/3 187/1/3 186/1/3
f 204/3/3 189/3/3 188/3/3
f 205/2/3 190/2/3 189/2/3
f 205/3/3 189/3/3 204/3/3
f 206/2/3 190/2/3 205/2/3
f 207/3/3 191/3/3 190/3/3
f 207/2/3 190/2/3 206/2/3
f 207/3/3 192/3/3 191/3/3
f 207/3/3 193/3/3 192/3/3
f 209/2/3 195/2/3 194/2/3
f 210/1/3 196/1/3 195/1/3
f 210/2/3 195/2/3 209/2/3
f 211/2/3 197/2/3 196/2/3
f 211/1/3 196/1/3 210/1/3
f 212/1/3 199/1/3 198/1/3
f 212/2/3 197/2/3 211/2/3
f 212/1/3 198/1/3 197/1/3
f 213/1/3 199/1/3 212/1/3
f 214/3/3 202/3/3 201/3/3
f 215/3/3 204/3/3 203/3/3
f 215/3/3 206/3/3 205/3/3
f 215/3/3 205/3/3 204/3/3
f 216/1/3 207/1/3 206/1/3
f 216/3/3 206/3/3 215/3/3
f 217/3/3 193/3/3 207/3/3
f 217/1/3 207/1/3 216/1/3
f 218/3/3 193/3/3 217/3/3
f 219/3/3 193/3/3 218/3/3
f 220/2/3 211/2/3 210/2/3
f 220/2/3 209/2/3 208/2/3
f 220/2/3 210/2/3 209/2/3
f 221/2/3 211/2/3 220/2/3
f 222/1/3 212/1/3 211/1/3
f 222/2/3 211/2/3 221/2/3
f 223/2/3 213/2/3 212/2/3
f 223/1/3 212/1/3 222/1/3
f 224/1/3 199/1/3 213/1/3
f 224/2/3 213/2/3 223/2/3
f 225/3/3 216/3/3 215/3/3
f 225/1/3 218/1/3 217/1/3
f 225/3/3 217/3/3 216/3/3
f 225/3/3 215/3/3 214/3/3
f 226/3/3 219/3/3 218/3/3
f 226/1/3 218/1/3 225/1/3
f 227/3/3 219/3/3 226/3/3
f 228/3/3 219/3/3 227/3/3
f 229/2/3 221/2/3 220/2/3
f 229/3/3 219/3/3 228/3/3
f 229/2/3 220/2/3 219/2/3
f 230/1/3 222/1/3 221/1/3
f 230/2/3 221/2/3 229/2/3
f 231/2/3 223/2/3 222/2/3
f 231/1/3 222/1/3 230/1/3
f 232/1/3 224/1/3 223/1/3
f 232/2/3 223/2/3 231/2/3
f 233/1/3 199/1/3 224/1/3
f 233/1/3 224/1/3 232/1/3
f 234/1/3 227/1/3 226/1/3
f 234/3/3 226/3/3 225/3/3
f 235/3/3 228/3/3 227/3/3
f 235/1/3 227/1/3 234/1/3
f 236/3/3 228/3/3 235/3/3
f 237/2/3 230/2/3 229/2/3
f 237/3/3 228/3/3 236/3/3
f 237/2/3 232/2/3 231/2/3
f 237/2/3 229/2/3 228/2/3
f 237/2/3 233/2/3 232/2/3
f 237/2/3 231/2/3 230/2/3
f 238/2/3 233/2/3 237/2/3
f 239/2/3 233/2/3 238/2/3
f 240/2/3 233/2/3 239/2/3
f 241/2/3 233/2/3 240/2/3
f 242/1/3 200/1/3 186/1/3
f 242/1/3 201/1/3 200/1/3
f 243/1/3 201/1/3 242/1/3
f 244/3/3 225/3/3 214/3/3
f 244/1/3 201/1/3 243/1/3
f 244/3/3 236/3/3 235/3/3
f 244/3/3 214/3/3 201/3/3
f 244/3/3 235/3/3 234/3/3
f 244/3/3 234/3/3 225/3/3
f 245/3/3 236/3/3 244/3/3
f 246/2/3 238/2/3 237/2/3
f 246/3/3 236/3/3 245/3/3
f 246/2/3 237/2/3 236/2/3
f 247/2/3 238/2/3 246/2/3
f 248/1/3 239/1/3 238/1/3
f 248/2/3 238/2/3 247/2/3
f 249/2/3 240/2/3 239/2/3
f 249/1/3 239/1/3 248/1/3
f 250/1/3 241/1/3 240/1/3
f 250/2/3 240/2/3 249/2/3
f 251/2/3 233/2/3 241/2/3
f 251/1/3 241/1/3 250/1/3
f 252/2/3 243/2/3 242/2/3
f 252/1/3 242/1/3 186/1/3
f 253/2/3 243/2/3 252/2/3
f 254/3/3 245/3/3 244/3/3
f 255/3/3 245/3/3 254/3/3
f 256/3/3 245/3/3 255/3/3
f 257/3/3 245/3/3 256/3/3
f 258/2/3 247/2/3 246/2/3
f 258/3/3 245/3/3 257/3/3
f 258/2/3 246/2/3 245/2/3
f 259/1/3 248/1/3 247/1/3
f 259/2/3 247/2/3 258/2/3
f 260/1/3 248/1/3 259/1/3
f 261/1/3 253/1/3 252/1/3
f 261/1/3 252/1/3 186/1/3
f 262/1/3 253/1/3 261/1/3
f 264/3/3 256/3/3 255/3/3
f 265/2/3 257/2/3 256/2/3
f 265/3/3 256/3/3 264/3/3
f 266/1/3 258/1/3 257/1/3
f 266/2/3 257/2/3 265/2/3
f 266/1/3 259/1/3 258/1/3
f 267/1/3 259/1/3 266/1/3
f 268/1/3 259/1/3 267/1/3
f 269/2/3 260/2/3 259/2/3
f 269/1/3 259/1/3 268/1/3
f 270/1/3 248/1/3 260/1/3
f 270/2/3 260/2/3 269/2/3
f 271/2/3 251/2/3 250/2/3
f 271/1/3 248/1/3 270/1/3
f 271/2/3 250/2/3 249/2/3
f 271/2/3 249/2/3 248/2/3
f 272/2/3 251/2/3 271/2/3
f 273/2/3 251/2/3 272/2/3
f 274/2/3 233/2/3 251/2/3
f 274/2/3 251/2/3 273/2/3
f 276/3/3 265/3/3 264/3/3
f 276/3/3 264/3/3 263/3/3
f 276/3/3 267/3/3 266/3/3
f 276/3/3 266/3/3 265/3/3
f 277/3/3 267/3/3 276/3/3
f 278/2/3 268/2/3 267/2/3
f 278/3/3 267/3/3 277/3/3
f 279/3/3 270/3/3 269/3/3
f 279/2/3 268/2/3 278/2/3
f 279/3/3 269/3/3 268/3/3
f 280/3/3 270/3/3 279/3/3
f 281/3/3 270/3/3 280/3/3
f 282/1/3 272/1/3 271/1/3
f 283/2/3 273/2/3 272/2/3
f 283/1/3 272/1/3 282/1/3
f 284/1/3 274/1/3 273/1/3
f 284/2/3 273/2/3 283/2/3
f 285/2/3 233/2/3 274/2/3
f 285/1/3 274/1/3 284/1/3
f 286/1/3 199/1/3 233/1/3
f 286/2/3 233/2/3 285/2/3
f 287/1/3 199/1/3 286/1/3
f 289/1/3 276/1/3 275/1/3
f 289/1/3 277/1/3 276/1/3
f 290/3/3 278/3/3 277/3/3
f 290/3/3 280/3/3 279/3/3
f 290/1/3 277/1/3 289/1/3
f 290/3/3 279/3/3 278/3/3
f 291/3/3 280/3/3 290/3/3
f 292/3/3 280/3/3 291/3/3
f 293/3/3 280/3/3 292/3/3
f 294/3/3 280/3/3 293/3/3
f 295/3/3 280/3/3 294/3/3
f 296/1/3 199/1/3 287/1/3
f 297/1/3 199/1/3 296/1/3
f 298/1/3 289/1/3 288/1/3
f 298/1/3 290/1/3 289/1/3
f 298/1/3 291/1/3 290/1/3
f 299/1/3 291/1/3 298/1/3
f 300/1/3 291/1/3 299/1/3
f 301/3/3 292/3/3 291/3/3
f 301/1/3 291/1/3 300/1/3
f 302/3/3 292/3/3 301/3/3
f 303/3/3 292/3/3 302/3/3
f 304/3/3 294/3/3 293/3/3
f 305/3/3 294/3/3 304/3/3
f 306/3/3 294/3/3 305/3/3
f 307/3/3 294/3/3 306/3/3
f 308/3/3 294/3/3 307/3/3
f 309/1/3 300/1/3 299/1/3
f 310/1/3 300/1/3 309/1/3
f 311/2/3 301/2/3 300/2/3
f 311/1/3 300/1/3 310/1/3
f 312/1/3 302/1/3 301/1/3
f 312/2/3 301/2/3 311/2/3
f 313/1/3 302/1/3 312/1/3
f 315/3/3 307/3/3 306/3/3
f 315/2/3 306/2/3 305/2/3
f 316/3/3 307/3/3 315/3/3
f 317/3/3 307/3/3 316/3/3
f 318/3/3 307/3/3 317/3/3
f 319/1/3 311/1/3 310/1/3
f 319/1/3 312/1/3 311/1/3
f 320/1/3 312/1/3 319/1/3
f 321/2/3 313/2/3 312/2/3
f 321/1/3 312/1/3 320/1/3
f 322/1/3 314/1/3 313/1/3
f 322/2/3 313/2/3 321/2/3
f 323/1/3 314/1/3 322/1/3
f 324/2/3 316/2/3 315/2/3
f 324/2/3 315/2/3 305/2/3
f 325/2/3 316/2/3 324/2/3
f 326/3/3 317/3/3 316/3/3
f 326/2/3 316/2/3 325/2/3
f 327/3/3 317/3/3 326/3/3
f 328/1/3 321/1/3 320/1/3
f 328/1/3 322/1/3 321/1/3
f 329/1/3 322/1/3 328/1/3
f 330/2/3 326/2/3 325/2/3
f 331/2/3 326/2/3 330/2/3
f 332/2/4 333/2/4 336/2/4
f 333/3/4 334/3/4 337/3/4
f 337/3/4 338/3/4 339/3/4
f 335/2/4 336/2/4 346/2/4
f 336/2/4 333/2/4 347/2/4
f 346/2/4 336/2/4 347/2/4
f 333/3/4 337/3/4 348/3/4
f 347/2/4 333/2/4 348/2/4
f 337/3/4 339/3/4 348/3/4
f 339/3/4 340/3/4 348/3/4
f 348/3/4 340/3/4 349/3/4
f 341/1/4 342/1/4 353/1/4
f 353/1/4 342/1/4 354/1/4
f 354/1/4 342/1/4 355/1/4
f 343/1/4 344/1/4 357/1/4
f 345/3/4 346/3/4 361/3/4
f 346/2/4 347/2/4 362/2/4
f 361/3/4 346/3/4 362/3/4
f 362/2/4 347/2/4 363/2/4
f 347/3/4 348/3/4 364/3/4
f 363/2/4 347/2/4 364/2/4
f 348/3/4 349/3/4 364/3/4
f 349/3/4 350/3/4 364/3/4
f 351/2/4 352/2/4 366/2/4
f 352/1/4 353/1/4 367/1/4
f 366/2/4 352/2/4 367/2/4
f 353/2/4 354/2/4 368/2/4
f 367/1/4 353/1/4 368/1/4
f 355/1/4 356/1/4 369/1/4
f 368/2/4 354/2/4 369/2/4
f 354/1/4 355/1/4 369/1/4
f 369/1/4 356/1/4 370/1/4
f 358/3/4 359/3/4 371/3/4
f 360/3/4 361/3/4 372/3/4
f 362/3/4 363/3/4 372/3/4
f 361/3/4 362/3/4 372/3/4
f 363/1/4 364/1/4 373/1/4
f 372/3/4 363/3/4 373/3/4
f 364/3/4 350/3/4 374/3/4
f 373/1/4 364/1/4 374/1/4
f 374/3/4 350/3/4 375/3/4
f 375/3/4 350/3/4 376/3/4
f 367/2/4 368/2/4 377/2/4
f 365/2/4 366/2/4 377/2/4
f 366/2/4 367/2/4 377/2/4
f 377/2/4 368/2/4 378/2/4
f 368/1/4 369/1/4 379/1/4
f 378/2/4 368/2/4 379/2/4
f 369/2/4 370/2/4 380/2/4
f 379/1/4 369/1/4 380/1/4
f 370/1/4 356/1/4 381/1/4
f 380/2/4 370/2/4 381/2/4
f 372/3/4 373/3/4 382/3/4
f 374/1/4 375/1/4 382/1/4
f 373/3/4 374/3/4 382/3/4
f 371/3/4 372/3/4 382/3/4
f 375/3/4 376/3/4 383/3/4
f 382/1/4 375/1/4 383/1/4
f 383/3/4 376/3/4 384/3/4
f 384/3/4 376/3/4 385/3/4
f 377/2/4 378/2/4 386/2/4
f 385/3/4 376/3/4 386/3/4
f 376/2/4 377/2/4 386/2/4
f 378/1/4 379/1/4 387/1/4
f 386/2/4 378/2/4 387/2/4
f 379/2/4 380/2/4 388/2/4
f 387/1/4 379/1/4 388/1/4
f 380/1/4 381/1/4 389/1/4
f 388/2/4 380/2/4 389/2/4
f 381/1/4 356/1/4 390/1/4
f 389/1/4 381/1/4 390/1/4
f 383/1/4 384/1/4 391/1/4
f 382/3/4 383/3/4 391/3/4
f 384/3/4 385/3/4 392/3/4
f 391/1/4 384/1/4 392/1/4
f 392/3/4 385/3/4 393/3/4
f 386/2/4 387/2/4 394/2/4
f 393/3/4 385/3/4 394/3/4
f 388/2/4 389/2/4 394/2/4
f 385/2/4 386/2/4 394/2/4
f 389/2/4 390/2/4 394/2/4
f 387/2/4 388/2/4 394/2/4
f 394/2/4 390/2/4 395/2/4
f 395/2/4 390/2/4 396/2/4
f 396/2/4 390/2/4 397/2/4
f 397/2/4 390/2/4 398/2/4
f 343/1/4 357/1/4 399/1/4
f 357/1/4 358/1/4 399/1/4
f 399/1/4 358/1/4 400/1/4
f 371/3/4 382/3/4 401/3/4
f 400/1/4 358/1/4 401/1/4
f 392/3/4 393/3/4 401/3/4
f 358/3/4 371/3/4 401/3/4
f 391/3/4 392/3/4 401/3/4
f 382/3/4 391/3/4 401/3/4
f 401/3/4 393/3/4 402/3/4
f 394/2/4 395/2/4 403/2/4
f 402/3/4 393/3/4 403/3/4
f 393/2/4 394/2/4 403/2/4
f 403/2/4 395/2/4 404/2/4
f 395/1/4 396/1/4 405/1/4
f 404/2/4 395/2/4 405/2/4
f 396/2/4 397/2/4 406/2/4
f 405/1/4 396/1/4 406/1/4
f 397/1/4 398/1/4 407/1/4
f 406/2/4 397/2/4 407/2/4
f 398/2/4 390/2/4 408/2/4
f 407/1/4 398/1/4 408/1/4
f 399/2/4 400/2/4 409/2/4
f 343/1/4 399/1/4 409/1/4
f 409/2/4 400/2/4 410/2/4
f 401/3/4 402/3/4 411/3/4
f 411/3/4 402/3/4 412/3/4
f 412/3/4 402/3/4 413/3/4
f 413/3/4 402/3/4 414/3/4
f 403/2/4 404/2/4 415/2/4
f 414/3/4 402/3/4 415/3/4
f 402/2/4 403/2/4 415/2/4
f 404/1/4 405/1/4 416/1/4
f 415/2/4 404/2/4 416/2/4
f 416/1/4 405/1/4 417/1/4
f 409/1/4 410/1/4 418/1/4
f 343/1/4 409/1/4 418/1/4
f 418/1/4 410/1/4 419/1/4
f 412/3/4 413/3/4 421/3/4
f 413/2/4 414/2/4 422/2/4
f 421/3/4 413/3/4 422/3/4
f 414/1/4 415/1/4 423/1/4
f 422/2/4 414/2/4 423/2/4
f 415/1/4 416/1/4 423/1/4
f 423/1/4 416/1/4 424/1/4
f 424/1/4 416/1/4 425/1/4
f 416/2/4 417/2/4 426/2/4
f 425/1/4 416/1/4 426/1/4
f 417/1/4 405/1/4 427/1/4
f 426/2/4 417/2/4 427/2/4
f 407/2/4 408/2/4 428/2/4
f 427/1/4 405/1/4 428/1/4
f 406/2/4 407/2/4 428/2/4
f 405/2/4 406/2/4 428/2/4
f 428/2/4 408/2/4 429/2/4
f 429/2/4 408/2/4 430/2/4
f 408/2/4 390/2/4 431/2/4
f 430/2/4 408/2/4 431/2/4
f 421/3/4 422/3/4 433/3/4
f 420/3/4 421/3/4 433/3/4
f 423/3/4 424/3/4 433/3/4
f 422/3/4 423/3/4 433/3/4
f 433/3/4 424/3/4 434/3/4
f 424/2/4 425/2/4 435/2/4
f 434/3/4 424/3/4 435/3/4
f 426/3/4 427/3/4 436/3/4
f 435/2/4 425/2/4 436/2/4
f 425/3/4 426/3/4 436/3/4
f 436/3/4 427/3/4 437/3/4
f 437/3/4 427/3/4 438/3/4
f 428/1/4 429/1/4 439/1/4
f 429/2/4 430/2/4 440/2/4
f 439/1/4 429/1/4 440/1/4
f 430/1/4 431/1/4 441/1/4
f 440/2/4 430/2/4 441/2/4
f 431/2/4 390/2/4 442/2/4
f 441/1/4 431/1/4 442/1/4
f 390/1/4 356/1/4 443/1/4
f 442/2/4 390/2/4 443/2/4
f 443/1/4 356/1/4 444/1/4
f 432/1/4 433/1/4 446/1/4
f 433/1/4 434/1/4 446/1/4
f 434/3/4 435/3/4 447/3/4
f 436/3/4 437/3/4 447/3/4
f 446/1/4 434/1/4 447/1/4
f 435/3/4 436/3/4 447/3/4
f 447/3/4 437/3/4 448/3/4
f 448/3/4 437/3/4 449/3/4
f 449/3/4 437/3/4 450/3/4
f 450/3/4 437/3/4 451/3/4
f 451/3/4 437/3/4 452/3/4
f 444/1/4 356/1/4 453/1/4
f 453/1/4 356/1/4 454/1/4
f 445/1/4 446/1/4 455/1/4
f 446/1/4 447/1/4 455/1/4
f 447/1/4 448/1/4 455/1/4
f 455/1/4 448/1/4 456/1/4
f 456/1/4 448/1/4 457/1/4
f 448/3/4 449/3/4 458/3/4
f 457/1/4 448/1/4 458/1/4
f 458/3/4 449/3/4 459/3/4
f 459/3/4 449/3/4 460/3/4
f 450/3/4 451/3/4 461/3/4
f 461/3/4 451/3/4 462/3/4
f 462/3/4 451/3/4 463/3/4
f 463/3/4 451/3/4 464/3/4
f 464/3/4 451/3/4 465/3/4
f 456/1/4 457/1/4 466/1/4
f 466/1/4 457/1/4 467/1/4
f 457/2/4 458/2/4 468/2/4
f 467/1/4 457/1/4 468/1/4
f 458/1/4 459/1/4 469/1/4
f 468/2/4 458/2/4 469/2/4
f 469/1/4 459/1/4 470/1/4
f 463/3/4 464/3/4 472/3/4
f 462/2/4 463/2/4 472/2/4
f 472/3/4 464/3/4 473/3/4
f 473/3/4 464/3/4 474/3/4
f 474/3/4 464/3/4 475/3/4
f 467/1/4 468/1/4 476/1/4
f 468/1/4 469/1/4 476/1/4
f 476/1/4 469/1/4 477/1/4
f 469/2/4 470/2/4 478/2/4
f 477/1/4 469/1/4 478/1/4
f 470/1/4 471/1/4 479/1/4
f 478/2/4 470/2/4 479/2/4
f 479/1/4 471/1/4 480/1/4
f 472/2/4 473/2/4 481/2/4
f 462/2/4 472/2/4 481/2/4
f 481/2/4 473/2/4 482/2/4
f 473/3/4 474/3/4 483/3/4
f 482/2/4 473/2/4 483/2/4
f 483/3/4 474/3/4 484/3/4
f 477/1/4 478/1/4 485/1/4
f 478/1/4 479/1/4 485/1/4
f 485/1/4 479/1/4 486/1/4
f 482/2/4 483/2/4 487/2/4
f 487/2/4 483/2/4 488/2/4
f 491/1/5 490/1/5 489/1/5
f 492/1/5 490/1/5 491/1/5
f 495/1/5 494/1/5 493/1/5
f 496/1/5 494/1/5 495/1/5
f 503/3/5 498/3/5 497/3/5
f 504/3/5 498/3/5 503/3/5
f 505/1/5 500/1/5 499/1/5
f 506/1/5 500/1/5 505/1/5
f 507/1/5 502/1/5 501/1/5
f 508/1/5 502/1/5 507/1/5
f 513/3/5 510/3/5 509/3/5
f 514/3/5 510/3/5 513/3/5
f 515/1/5 512/1/5 511/1/5
f 516/1/5 512/1/5 515/1/5
f 521/3/5 518/3/5 517/3/5
f 522/3/5 518/3/5 521/3/5
f 523/1/5 520/1/5 519/1/5
f 524/1/5 520/1/5 523/1/5
f 527/3/5 526/3/5 525/3/5
f 528/3/5 526/3/5 527/3/5
f 531/3/5 530/3/5 529/3/5
f 532/3/5 530/3/5 531/3/5
f 537/2/5 534/2/5 533/2/5
f 538/2/5 534/2/5 537/2/5
f 539/3/5 536/3/5 535/3/5
f 540/3/5 536/3/5 539/3/5
f 545/2/5 542/2/5 541/2/5
f 546/2/5 542/2/5 545/2/5
f 547/2/5 544/2/5 543/2/5
f 548/2/5 544/2/5 547/2/5
f 551/2/5 550/2/5 549/2/5
f 552/2/5 550/2/5 551/2/5
f 557/2/5 554/2/5 553/2/5
f 558/2/5 554/2/5 557/2/5
f 559/1/5 556/1/5 555/1/5
f 560/1/5 556/1/5 559/1/5
f 563/2/5 562/2/5 561/2/5
f 564/2/5 562/2/5 563/2/5
f 567/1/5 566/1/5 565/1/5
f 568/1/5 566/1/5 567/1/5
f 571/1/5 570/1/5 569/1/5
f 572/1/5 570/1/5 571/1/5
f 573/1/6 574/1/6 578/1/6
f 578/1/6 574/1/6 579/1/6
f 575/2/6 576/2/6 580/2/6
f 576/1/6 577/1/6 581/1/6
f 580/2/6 576/2/6 581/2/6
f 581/1/6 577/1/6 582/1/6
f 583/3/6 584/3/6 585/3/6
f 585/3/6 584/3/6 586/3/6
f 587/1/6 588/1/6 591/1/6
f 591/1/6 588/1/6 592/1/6
f 589/1/6 590/1/6 593/1/6
f 593/1/6 590/1/6 594/1/6
f 595/1/6 596/1/6 597/1/6
f 597/1/6 596/1/6 598/1/6
f 599/3/6 600/3/6 601/3/6
f 601/3/6 600/3/6 602/3/6
f 603/2/6 604/2/6 605/2/6
f 605/2/6 604/2/6 606/2/6
f 607/3/6 608/3/6 609/3/6
f 609/3/6 608/3/6 610/3/6
f 611/3/6 612/3/6 613/3/6
f 613/3/6 612/3/6 614/3/6
f 615/3/6 616/3/6 617/3/6
f 617/3/6 616/3/6 618/3/6
f 619/3/6 620/3/6 621/3/6
f 621/3/6 620/3/6 622/3/6
f 623/3/6 624/3/6 625/3/6
f 625/3/6 624/3/6 626/3/6
f 627/3/6 628/3/6 629/3/6
f 629/3/6 628/3/6 630/3/6
f 631/3/6 632/3/6 633/3/6
f 633/3/6 632/3/6 634/3/6
f 635/3/6 636/3/6 639/3/6
f 639/3/6 636/3/6 640/3/6
f 637/3/6 638/3/6 641/3/6
f 641/3/6 638/3/6 642/3/6
f 643/1/6 644/1/6 645/1/6
f 645/1/6 644/1/6 646/1/6
f 647/1/6 648/1/6 649/1/6
f 649/1/6 648/1/6 650/1/6
