# Blender 3.3.0
# www.blender.org
mtllib Bank-12gon.mtl
o Torus
v 2.125000 2.000000 0.000000
v 2.000000 2.125000 0.000000
v 1.875000 0.000000 0.000000
v 2.000000 -0.125000 0.000000
v 1.840304 2.000000 -1.062500
v 1.732051 2.125000 -1.000000
v 1.623798 0.000000 -0.937500
v 1.732051 -0.125000 -1.000000
v 1.062500 2.000000 -1.840304
v 1.000000 2.125000 -1.732051
v 0.937500 0.000000 -1.623798
v 1.000000 -0.125000 -1.732051
v 0.000000 2.000000 -2.125000
v 0.000000 2.125000 -2.000000
v 0.000000 0.000000 -1.875000
v 0.000000 -0.125000 -2.000000
v -1.062500 2.000000 -1.840304
v -1.000000 2.125000 -1.732051
v -0.937500 0.000000 -1.623798
v -1.000000 -0.125000 -1.732051
v -1.840304 2.000000 -1.062500
v -1.732051 2.125000 -1.000000
v -1.623797 0.000000 -0.937500
v -1.732051 -0.125000 -1.000000
v -2.125000 2.000000 -0.000000
v -2.000000 2.125000 -0.000000
v -1.875000 0.000000 -0.000000
v -2.000000 -0.125000 -0.000000
v -1.840304 2.000000 1.062500
v -1.732051 2.125000 1.000000
v -1.623798 0.000000 0.937500
v -1.732051 -0.125000 1.000000
v -1.062500 2.000000 1.840304
v -1.000000 2.125000 1.732051
v -0.937500 0.000000 1.623798
v -1.000000 -0.125000 1.732051
v 0.000000 2.000000 2.125000
v 0.000000 2.125000 2.000000
v 0.000000 0.000000 1.875000
v 0.000000 -0.125000 2.000000
v 1.062500 2.000000 1.840304
v 1.000000 2.125000 1.732051
v 0.937500 0.000000 1.623798
v 1.000000 -0.125000 1.732051
v 1.840304 2.000000 1.062500
v 1.732051 2.125000 1.000000
v 1.623798 0.000000 0.937500
v 1.732051 -0.125000 1.000000
vn 0.6947 0.6947 -0.1862
vn -0.9644 0.0567 0.2584
vn -0.6947 -0.6947 0.1862
vn 0.9644 -0.0567 -0.2584
vn 0.5086 0.6947 -0.5086
vn -0.7060 0.0567 0.7060
vn -0.5086 -0.6947 0.5086
vn 0.7060 -0.0567 -0.7060
vn 0.1862 0.6947 -0.6947
vn -0.2584 0.0567 0.9644
vn -0.1862 -0.6947 0.6947
vn 0.2584 -0.0567 -0.9644
vn -0.1862 0.6947 -0.6947
vn 0.2584 0.0567 0.9644
vn 0.1862 -0.6947 0.6947
vn -0.2584 -0.0567 -0.9644
vn -0.5086 0.6947 -0.5086
vn 0.7060 0.0567 0.7060
vn 0.5086 -0.6947 0.5086
vn -0.7060 -0.0567 -0.7060
vn -0.6947 0.6947 -0.1862
vn 0.9644 0.0567 0.2584
vn 0.6947 -0.6947 0.1862
vn -0.9644 -0.0567 -0.2584
vn -0.6947 0.6947 0.1862
vn 0.9644 0.0567 -0.2584
vn 0.6947 -0.6947 -0.1862
vn -0.9644 -0.0567 0.2584
vn -0.5086 0.6947 0.5086
vn 0.7060 0.0567 -0.7060
vn 0.5086 -0.6947 -0.5086
vn -0.7060 -0.0567 0.7060
vn -0.1862 0.6947 0.6947
vn 0.2584 0.0567 -0.9644
vn 0.1862 -0.6947 -0.6947
vn -0.2584 -0.0567 0.9644
vn 0.1862 0.6947 0.6947
vn -0.2584 0.0567 -0.9644
vn -0.1862 -0.6947 -0.6947
vn 0.2584 -0.0567 0.9644
vn 0.5086 0.6947 0.5086
vn -0.7060 0.0567 -0.7060
vn -0.5086 -0.6947 -0.5086
vn 0.7060 -0.0567 0.7060
vn 0.6947 0.6947 0.1862
vn -0.9644 0.0567 -0.2584
vn -0.6947 -0.6947 -0.1862
vn 0.9644 -0.0567 0.2584
vt 0.500000 0.500000
vt 0.500000 0.750000
vt 0.500000 1.000000
vt 0.500000 0.000000
vt 0.500000 0.250000
vt 0.583333 0.500000
vt 0.583333 0.750000
vt 0.583333 1.000000
vt 0.583333 0.000000
vt 0.583333 0.250000
vt 0.666667 0.500000
vt 0.666667 0.750000
vt 0.666667 1.000000
vt 0.666667 0.000000
vt 0.666667 0.250000
vt 0.750000 0.500000
vt 0.750000 0.750000
vt 0.750000 1.000000
vt 0.750000 0.000000
vt 0.750000 0.250000
vt 0.833333 0.500000
vt 0.833333 0.750000
vt 0.833333 1.000000
vt 0.833333 0.000000
vt 0.833333 0.250000
vt 0.916667 0.500000
vt 0.916667 0.750000
vt 0.916667 1.000000
vt 0.916667 0.000000
vt 0.916667 0.250000
vt 1.000000 0.500000
vt 0.000000 0.500000
vt 1.000000 0.750000
vt 0.000000 0.750000
vt 1.000000 1.000000
vt 1.000000 0.000000
vt 0.000000 1.000000
vt 0.000000 0.000000
vt 1.000000 0.250000
vt 0.000000 0.250000
vt 0.083333 0.500000
vt 0.083333 0.750000
vt 0.083333 1.000000
vt 0.083333 0.000000
vt 0.083333 0.250000
vt 0.166667 0.500000
vt 0.166667 0.750000
vt 0.166667 1.000000
vt 0.166667 0.000000
vt 0.166667 0.250000
vt 0.250000 0.500000
vt 0.250000 0.750000
vt 0.250000 1.000000
vt 0.250000 0.000000
vt 0.250000 0.250000
vt 0.333333 0.500000
vt 0.333333 0.750000
vt 0.333333 1.000000
vt 0.333333 0.000000
vt 0.333333 0.250000
vt 0.416667 0.500000
vt 0.416667 0.750000
vt 0.416667 1.000000
vt 0.416667 0.000000
vt 0.416667 0.250000
s 0
f 1/1/1 5/6/1 6/7/1 2/2/1
f 2/2/2 6/7/2 7/8/2 3/3/2
f 3/4/3 7/9/3 8/10/3 4/5/3
f 4/5/4 8/10/4 5/6/4 1/1/4
f 5/6/5 9/11/5 10/12/5 6/7/5
f 6/7/6 10/12/6 11/13/6 7/8/6
f 7/9/7 11/14/7 12/15/7 8/10/7
f 8/10/8 12/15/8 9/11/8 5/6/8
f 9/11/9 13/16/9 14/17/9 10/12/9
f 10/12/10 14/17/10 15/18/10 11/13/10
f 11/14/11 15/19/11 16/20/11 12/15/11
f 12/15/12 16/20/12 13/16/12 9/11/12
f 13/16/13 17/21/13 18/22/13 14/17/13
f 14/17/14 18/22/14 19/23/14 15/18/14
f 15/19/15 19/24/15 20/25/15 16/20/15
f 16/20/16 20/25/16 17/21/16 13/16/16
f 17/21/17 21/26/17 22/27/17 18/22/17
f 18/22/18 22/27/18 23/28/18 19/23/18
f 19/24/19 23/29/19 24/30/19 20/25/19
f 20/25/20 24/30/20 21/26/20 17/21/20
f 21/26/21 25/31/21 26/33/21 22/27/21
f 22/27/22 26/33/22 27/35/22 23/28/22
f 23/29/23 27/36/23 28/39/23 24/30/23
f 24/30/24 28/39/24 25/31/24 21/26/24
f 25/32/25 29/41/25 30/42/25 26/34/25
f 26/34/26 30/42/26 31/43/26 27/37/26
f 27/38/27 31/44/27 32/45/27 28/40/27
f 28/40/28 32/45/28 29/41/28 25/32/28
f 29/41/29 33/46/29 34/47/29 30/42/29
f 30/42/30 34/47/30 35/48/30 31/43/30
f 31/44/31 35/49/31 36/50/31 32/45/31
f 32/45/32 36/50/32 33/46/32 29/41/32
f 33/46/33 37/51/33 38/52/33 34/47/33
f 34/47/34 38/52/34 39/53/34 35/48/34
f 35/49/35 39/54/35 40/55/35 36/50/35
f 36/50/36 40/55/36 37/51/36 33/46/36
f 37/51/37 41/56/37 42/57/37 38/52/37
f 38/52/38 42/57/38 43/58/38 39/53/38
f 39/54/39 43/59/39 44/60/39 40/55/39
f 40/55/40 44/60/40 41/56/40 37/51/40
f 41/56/41 45/61/41 46/62/41 42/57/41
f 42/57/42 46/62/42 47/63/42 43/58/42
f 43/59/43 47/64/43 48/65/43 44/60/43
f 44/60/44 48/65/44 45/61/44 41/56/44
f 45/61/45 1/1/45 2/2/45 46/62/45
f 46/62/46 2/2/46 3/3/46 47/63/46
f 47/64/47 3/4/47 4/5/47 48/65/47
f 48/65/48 4/5/48 1/1/48 45/61/48
